<svg width="10" height="24" viewBox="0 0 10 24" fill="none" xmlns="http://www.w3.org/2000/svg">
<g clip-path="url(#clip0_2042_5905)">
<path d="M6.08755 7.81395C8.24796 7.81395 9.99932 6.06474 9.99932 3.90698C9.99932 1.74921 8.24796 0 6.08755 0C3.92714 0 2.17578 1.74921 2.17578 3.90698C2.17578 6.06474 3.92714 7.81395 6.08755 7.81395Z" fill="#5E647A"/>
<path fill-rule="evenodd" clip-rule="evenodd" d="M3.98377 2.78391V4.59744C3.98377 5.02439 3.99192 5.07725 4.25247 5.10572L4.36239 5.11791C4.38682 5.13825 4.37868 5.20737 4.35425 5.21957C4.12219 5.21144 3.98784 5.20737 3.825 5.20737C3.65401 5.20737 3.50744 5.21144 3.32831 5.21957C3.30388 5.20737 3.29574 5.14231 3.32017 5.11791L3.40566 5.10572C3.64179 5.07319 3.64994 5.02439 3.64994 4.59744V3.09701C3.64994 2.75138 3.64179 2.68226 3.45859 2.66192L3.31203 2.64566C3.28353 2.62126 3.2876 2.56027 3.32017 2.544C3.53594 2.51554 3.78836 2.51147 4.12627 2.51147C4.46417 2.51147 4.71659 2.5562 4.90793 2.67412C5.09521 2.79204 5.23363 3.00349 5.23363 3.28405C5.23363 3.65815 5.00157 3.84519 4.82651 3.93058C4.64738 4.01597 4.4316 4.05257 4.26469 4.05257C4.23619 4.04037 4.23619 3.97938 4.26061 3.97124C4.7003 3.88992 4.85908 3.64188 4.85908 3.28812C4.85908 2.8937 4.62702 2.63753 4.20362 2.63753C3.98784 2.63753 3.98377 2.65379 3.98377 2.78391ZM6.48348 3.1824L6.9476 4.12169C7.04124 4.3128 7.1308 4.49985 7.22851 4.67876H7.23666C7.34658 4.48765 7.44836 4.27621 7.55014 4.06883L7.93283 3.29219C8.11603 2.92216 8.2341 2.69852 8.24224 2.51147C8.38066 2.52367 8.46616 2.52367 8.54758 2.52367C8.64936 2.52367 8.78371 2.51961 8.90992 2.51147C8.93434 2.52774 8.93434 2.59686 8.91399 2.61313L8.82849 2.62126C8.57201 2.64566 8.53944 2.72292 8.54351 3.00755C8.55165 3.43857 8.55572 4.19082 8.58829 4.77635C8.6005 4.97966 8.59643 5.08945 8.78778 5.10572L8.91806 5.11791C8.94249 5.14231 8.93841 5.2033 8.90992 5.21957C8.743 5.21144 8.57608 5.20737 8.42952 5.20737C8.28702 5.20737 8.10382 5.21144 7.9369 5.21957C7.9084 5.19924 7.90433 5.14231 7.92876 5.11791L8.04682 5.10572C8.24631 5.08538 8.24631 5.02032 8.24631 4.76009L8.2341 3.06448H8.22596C8.19746 3.10921 8.04275 3.4345 7.96133 3.59309L7.59899 4.30467C7.41579 4.6625 7.23258 5.04472 7.1593 5.23177C7.15116 5.24397 7.13488 5.24803 7.11859 5.24803C7.11045 5.24803 7.09009 5.24397 7.08195 5.23177C7.01274 5.01626 6.81732 4.61777 6.72369 4.41853L6.35728 3.63375C6.27178 3.4467 6.18629 3.23526 6.09672 3.04821H6.08858C6.07229 3.30032 6.06008 3.53616 6.04787 3.772C6.03565 4.02004 6.01937 4.38193 6.01937 4.72756C6.01937 5.02846 6.0438 5.09352 6.20257 5.10572L6.35728 5.11791C6.38578 5.14231 6.38171 5.20737 6.35321 5.21957C6.21479 5.21144 6.05601 5.20737 5.9013 5.20737C5.77103 5.20737 5.62446 5.21144 5.48604 5.21957C5.46162 5.19924 5.45347 5.13825 5.4779 5.11791L5.56747 5.10572C5.73846 5.08132 5.79545 5.05692 5.81988 4.77229C5.84431 4.50392 5.86466 4.28027 5.88909 3.87772C5.90945 3.54023 5.92573 3.1946 5.93387 2.97096C5.94202 2.71479 5.90945 2.65379 5.6611 2.62126L5.59597 2.61313C5.57561 2.58873 5.57968 2.52774 5.61225 2.51147C5.73439 2.51961 5.83209 2.52367 5.93387 2.52367C6.02751 2.52367 6.13743 2.52367 6.27178 2.51147C6.2555 2.67006 6.35728 2.92216 6.48348 3.1824Z" fill="#5E647A"/>
</g>
<defs>
<clipPath id="clip0_2042_5905">
<rect width="114" height="24" fill="white" transform="translate(-104)"/>
</clipPath>
</defs>
</svg>
