<svg width="129" height="24" viewBox="0 0 129 24" fill="none" xmlns="http://www.w3.org/2000/svg">
<g clip-path="url(#clip0_2042_5980)">
<path fill-rule="evenodd" clip-rule="evenodd" d="M12.5603 7.90796H10.8457V11.2882H13.5432V12.7035H10.8457V16.0836L12.6443 16.0836C13.1064 16.0836 16.4382 16.1358 16.433 12.1509C16.4279 8.16608 13.2015 7.90796 12.5603 7.90796Z" fill="#5E647A"/>
<path d="M12.2734 0C5.64596 0 0.273438 5.37252 0.273438 12C0.273438 18.6275 5.64596 24 12.2734 24C18.9009 24 24.2734 18.6275 24.2734 12C24.2734 5.37252 18.9009 0 12.2734 0ZM12.7449 18.4812H8.39912V12.7037H6.8672V11.2884H8.399V5.51052H12.1288C13.0112 5.51052 18.8556 5.32728 18.8556 12.1043C18.8556 18.9934 12.745 18.4812 12.745 18.4812H12.7449Z" fill="#5E647A"/>
<path fill-rule="evenodd" clip-rule="evenodd" d="M34.5449 9.38541H35.5783C36.1204 9.38541 36.575 9.26682 36.942 9.02965C37.3091 8.79247 37.6027 8.47906 37.823 8.08941C38.0432 7.69976 38.2013 7.248 38.2973 6.73412C38.3933 6.22023 38.4413 5.69224 38.4413 5.15012C38.4413 4.50635 38.2973 3.99247 38.0093 3.60847C37.7213 3.22447 37.2103 3.03247 36.4762 3.03247H35.4427L34.5449 9.38541ZM31.614 0.220235H37.662C39.3562 0.220235 40.6409 0.64376 41.5162 1.49082C42.3915 2.33789 42.8291 3.51811 42.8291 5.03153C42.8291 6.11577 42.6738 7.10682 42.3632 8.00471C42.0526 8.90259 41.6093 9.67341 41.0333 10.3172C40.4573 10.9609 39.7627 11.4607 38.9496 11.8165C38.1364 12.1722 37.2216 12.3501 36.2051 12.3501H29.9199L31.614 0.220235ZM48.1995 7.2C48.1995 7.48235 48.2277 7.74776 48.2842 7.99623C48.3406 8.24471 48.431 8.46212 48.5552 8.64847C48.6795 8.83482 48.8432 8.98447 49.0465 9.09741C49.2498 9.21035 49.4983 9.26682 49.7919 9.26682C50.142 9.26682 50.4667 9.17929 50.766 9.00424C51.0653 8.82917 51.3223 8.57506 51.5369 8.24188C51.7515 7.9087 51.9209 7.50494 52.0451 7.03059C52.1693 6.55623 52.2315 6.01977 52.2315 5.42118C52.2315 5.13882 52.206 4.86777 52.1552 4.608C52.1044 4.34823 52.0169 4.11953 51.8926 3.92188C51.7684 3.72423 51.6046 3.56894 51.4013 3.456C51.198 3.34306 50.9439 3.28659 50.639 3.28659C50.1646 3.28659 49.7693 3.42494 49.4531 3.70165C49.1369 3.97835 48.8856 4.32 48.6992 4.72659C48.5129 5.13318 48.383 5.56235 48.3096 6.01412C48.2362 6.46588 48.1995 6.86118 48.1995 7.2ZM51.0964 0C52.0225 0 52.8329 0.127058 53.5275 0.381176C54.222 0.635295 54.8009 0.988233 55.2639 1.44C55.727 1.89177 56.0743 2.4367 56.3058 3.07482C56.5373 3.71294 56.6531 4.41035 56.6531 5.16706C56.6531 6.13836 56.4978 7.07011 56.1872 7.96235C55.8766 8.85459 55.4136 9.64235 54.798 10.3256C54.1825 11.0089 53.4173 11.5539 52.5025 11.9605C51.5877 12.3671 50.5317 12.5704 49.3345 12.5704C48.4084 12.5704 47.598 12.4489 46.9035 12.2061C46.2089 11.9633 45.63 11.6188 45.167 11.1727C44.7039 10.7266 44.3566 10.1929 44.1251 9.57176C43.8936 8.95059 43.7778 8.256 43.7778 7.488C43.7778 6.50541 43.9331 5.56518 44.2437 4.66729C44.5543 3.76941 45.0173 2.97318 45.6329 2.27859C46.2484 1.584 47.0136 1.03059 47.9284 0.618353C48.8432 0.206116 49.8992 0 51.0964 0ZM65.6658 0C66.5355 0 67.2922 0.05647 67.9359 0.169412C68.5797 0.282354 69.1726 0.463058 69.7147 0.711529L69.2743 3.79482C68.8451 3.53506 68.3651 3.32612 67.8343 3.168C67.3034 3.00988 66.75 2.93082 66.174 2.93082C65.4625 2.93082 64.8498 3.05223 64.3359 3.29506C63.822 3.53788 63.3957 3.85412 63.0569 4.24376C62.718 4.63341 62.4667 5.07106 62.303 5.55671C62.1392 6.04236 62.0573 6.528 62.0573 7.01365C62.0573 7.75906 62.2437 8.36612 62.6164 8.83482C62.9891 9.30353 63.5594 9.53788 64.3274 9.53788H65.3439L65.5642 8.04706H64.1919L64.5477 5.57365H69.3759L68.4611 11.9774C67.7496 12.1694 66.9957 12.3162 66.1994 12.4179C65.4032 12.5195 64.5985 12.5704 63.7853 12.5704C62.7802 12.5704 61.8964 12.4348 61.134 12.1638C60.3717 11.8927 59.7336 11.5172 59.2197 11.0372C58.7058 10.5572 58.3162 9.98965 58.0507 9.33459C57.7853 8.67953 57.6526 7.968 57.6526 7.2C57.6526 5.91246 57.9039 4.81412 58.4065 3.90494C58.9091 2.99576 59.5529 2.25036 60.3378 1.66871C61.1227 1.08706 61.9867 0.663531 62.9298 0.398118C63.8729 0.132705 64.7849 0 65.6658 0ZM71.9679 0.220235H81.2686L80.8112 3.47294H75.7289L75.5425 4.82824H80.3877L79.998 7.60659H75.1529L74.9326 9.11435H80.1336L79.6762 12.3501H70.2569L71.9679 0.220235ZM89.1463 0C89.8465 0 90.4649 0.0536465 91.0013 0.160941C91.5378 0.268236 92.0884 0.412234 92.6531 0.592941L92.1618 4.01506C91.7326 3.78918 91.3006 3.59435 90.8658 3.43059C90.431 3.26682 89.982 3.18494 89.519 3.18494C88.9543 3.18494 88.4517 3.27247 88.0112 3.44753C87.5707 3.62259 87.1952 3.86823 86.8846 4.18447C86.574 4.50071 86.3369 4.8847 86.1731 5.33647C86.0093 5.78824 85.9275 6.28517 85.9275 6.82729C85.9275 7.61789 86.1618 8.22494 86.6305 8.64847C87.0992 9.072 87.774 9.28376 88.655 9.28376C89.5585 9.28376 90.558 9.0353 91.6536 8.53835L91.1962 11.7402C90.6314 11.9887 90.0131 12.1892 89.3411 12.3416C88.6691 12.4941 88.0112 12.5704 87.3674 12.5704C86.3849 12.5704 85.5293 12.4376 84.8009 12.1722C84.0724 11.9068 83.4625 11.5426 82.9712 11.0795C82.4799 10.6165 82.1129 10.0631 81.87 9.41929C81.6272 8.77553 81.5058 8.0753 81.5058 7.31859C81.5058 6.83294 81.5566 6.31624 81.6583 5.76847C81.7599 5.2207 81.9322 4.67577 82.175 4.13365C82.4178 3.59153 82.7312 3.072 83.1152 2.57506C83.4992 2.07812 83.9764 1.63765 84.5467 1.25365C85.1171 0.869645 85.7806 0.564707 86.5373 0.338824C87.294 0.11294 88.1637 0 89.1463 0ZM97.278 7.2C97.278 7.48235 97.3063 7.74776 97.3627 7.99623C97.4192 8.24471 97.5096 8.46212 97.6338 8.64847C97.758 8.83482 97.9218 8.98447 98.1251 9.09741C98.3284 9.21035 98.5769 9.26682 98.8705 9.26682C99.2206 9.26682 99.5453 9.17929 99.8446 9.00424C100.144 8.82917 100.401 8.57506 100.615 8.24188C100.83 7.9087 100.999 7.50494 101.124 7.03059C101.248 6.55623 101.31 6.01977 101.31 5.42118C101.31 5.13882 101.285 4.86777 101.234 4.608C101.183 4.34823 101.095 4.11953 100.971 3.92188C100.847 3.72423 100.683 3.56894 100.48 3.456C100.277 3.34306 100.023 3.28659 99.7176 3.28659C99.2432 3.28659 98.8479 3.42494 98.5317 3.70165C98.2154 3.97835 97.9642 4.32 97.7778 4.72659C97.5914 5.13318 97.4616 5.56235 97.3882 6.01412C97.3147 6.46588 97.278 6.86118 97.278 7.2ZM100.175 0C101.101 0 101.911 0.127058 102.606 0.381176C103.301 0.635295 103.879 0.988233 104.343 1.44C104.806 1.89177 105.153 2.4367 105.384 3.07482C105.616 3.71294 105.732 4.41035 105.732 5.16706C105.732 6.13836 105.576 7.07011 105.266 7.96235C104.955 8.85459 104.492 9.64235 103.877 10.3256C103.261 11.0089 102.496 11.5539 101.581 11.9605C100.666 12.3671 99.6103 12.5704 98.4131 12.5704C97.487 12.5704 96.6766 12.4489 95.982 12.2061C95.2875 11.9633 94.7086 11.6188 94.2456 11.1727C93.7825 10.7266 93.4352 10.1929 93.2037 9.57176C92.9722 8.95059 92.8564 8.256 92.8564 7.488C92.8564 6.50541 93.0117 5.56518 93.3223 4.66729C93.6329 3.76941 94.0959 2.97318 94.7114 2.27859C95.327 1.584 96.0921 1.03059 97.007 0.618353C97.9218 0.206116 98.9778 0 100.175 0ZM110.882 12.3501H106.663L108.375 0.220235H112.593L110.882 12.3501ZM123.655 0.220235H127.738L126.044 12.3501H120.928L118.048 4.86212L116.998 12.3501H112.898L114.609 0.220235H119.861L122.639 7.47106L123.655 0.220235Z" fill="#5E647A"/>
<path fill-rule="evenodd" clip-rule="evenodd" d="M28.8613 23.5047L32.1575 15.0352H33.9201L37.2163 23.5047H35.408L34.5267 21.2442H31.0245L30.1432 23.5047H28.8613ZM31.4594 20.1169H34.0918L32.7756 16.7406L31.4594 20.1169ZM45.2337 23.167C44.4134 23.5333 43.4349 23.7164 42.298 23.7164C40.9093 23.7164 39.8277 23.3253 39.0533 22.5433C38.2788 21.7612 37.8916 20.6701 37.8916 19.2699C37.8916 17.8431 38.2817 16.7453 39.0618 15.9766C39.842 15.2079 40.9551 14.8235 42.401 14.8235C43.3242 14.8235 44.2417 14.9322 45.1535 15.1497V16.5288C44.1197 16.1664 43.2536 15.9852 42.5555 15.9852C41.6628 15.9852 40.9741 16.2684 40.4896 16.835C40.0051 17.4015 39.7629 18.2055 39.7629 19.247C39.7629 20.2695 40.0232 21.0668 40.544 21.6391C41.0648 22.2114 41.7887 22.4975 42.7157 22.4975C43.5474 22.4975 44.3867 22.2877 45.2337 21.868V23.167ZM53.5829 23.167C52.7627 23.5333 51.7841 23.7164 50.6472 23.7164C49.2585 23.7164 48.177 23.3253 47.4025 22.5433C46.6281 21.7612 46.2408 20.6701 46.2408 19.2699C46.2408 17.8431 46.6309 16.7453 47.4111 15.9766C48.1913 15.2079 49.3043 14.8235 50.7502 14.8235C51.6735 14.8235 52.591 14.9322 53.5028 15.1497V16.5288C52.4689 16.1664 51.6029 15.9852 50.9047 15.9852C50.012 15.9852 49.3234 16.2684 48.8389 16.835C48.3544 17.4015 48.1121 18.2055 48.1121 19.247C48.1121 20.2695 48.3725 21.0668 48.8932 21.6391C49.414 22.2114 50.1379 22.4975 51.065 22.4975C51.8967 22.4975 52.736 22.2877 53.5829 21.868V23.167ZM55.1166 23.5047V15.0352H60.41V16.1969H56.8791V18.5603H59.7748V19.6934H56.8791V22.3029H60.6789V23.5047H55.1166ZM62.1553 23.5047V15.0352H65.1082C66.1383 15.0352 66.8736 15.2079 67.3143 15.5531C67.7549 15.8984 67.9752 16.4754 67.9752 17.2842C67.9752 18.1998 67.6805 18.9123 67.0911 19.4216C66.5017 19.9309 65.6767 20.1856 64.6161 20.1856H63.8836V23.5047H62.1553ZM63.8836 19.0239H64.2269C64.8297 19.0239 65.3056 18.8837 65.6547 18.6033C66.0038 18.3228 66.1783 17.9423 66.1783 17.4616C66.1783 16.6185 65.6423 16.1969 64.5703 16.1969H63.8836V19.0239ZM71.4431 23.5047V16.1969H68.4101V15.0352H76.2444V16.1969H73.2114V23.5047H71.4431ZM77.4289 23.5047V15.0352H82.7223V16.1969H79.1915V18.5603H82.0871V19.6934H79.1915V22.3029H82.9913V23.5047H77.4289ZM84.4677 23.5047V15.0352H88.113C89.4254 15.0352 90.4307 15.3833 91.1288 16.0796C91.827 16.7758 92.1761 17.7802 92.1761 19.0925C92.1761 20.4889 91.806 21.5733 91.0659 22.3458C90.3257 23.1184 89.29 23.5047 87.9585 23.5047H84.4677ZM86.2303 22.3029H87.5465C88.4735 22.3029 89.165 22.0463 89.6209 21.5332C90.0768 21.0201 90.3048 20.2409 90.3048 19.1955C90.3048 18.3867 90.1216 17.7134 89.7554 17.1755C89.5036 16.8054 89.2003 16.5498 88.8455 16.4086C88.4907 16.2675 87.9738 16.1969 87.2947 16.1969H86.2303V22.3029ZM96.7942 23.5047V15.0352H98.5567V18.4745H102.059V15.0352H103.822V23.5047H102.059V19.6419H98.5567V23.5047H96.7942ZM105.939 23.5047V15.0352H111.232V16.1969H107.701V18.5603H110.597V19.6934H107.701V22.3029H111.501V23.5047H105.939ZM112.978 23.5047V15.0352H116.148C117.869 15.0352 118.729 15.7353 118.729 17.1354C118.729 17.6581 118.583 18.134 118.291 18.5632C117.999 18.9924 117.598 19.3214 117.086 19.5503L119.856 23.5047H117.71L115.61 20.0425H114.637V23.5047H112.978ZM114.637 18.8808H115.044C116.322 18.8808 116.961 18.3639 116.961 17.33C116.961 16.5746 116.39 16.1969 115.25 16.1969H114.637V18.8808ZM121.064 23.5047V15.0352H126.357V16.1969H122.826V18.5603H125.722V19.6934H122.826V22.3029H126.626V23.5047H121.064Z" fill="#5E647A"/>
</g>
<defs>
<clipPath id="clip0_2042_5980">
<rect width="128.25" height="24" fill="white" transform="translate(0.273438)"/>
</clipPath>
</defs>
</svg>
