<svg width="87" height="24" viewBox="0 0 87 24" fill="none" xmlns="http://www.w3.org/2000/svg">
<g clip-path="url(#clip0_2042_5989)">
<path d="M24.6969 0H28.7927L20.268 8.63037C17.1815 11.7559 12.1827 11.7559 9.09623 8.63037L0.574936 0H4.67079L11.1459 6.55702C13.0685 8.51347 16.2133 8.53754 18.1668 6.61203C18.184 6.59484 18.2046 6.57421 18.2218 6.55702L24.6969 0ZM4.61929 24H0.523438L9.09966 15.3146C12.1861 12.1891 17.1849 12.1891 20.2714 15.3146L28.8442 24H24.7484L18.2218 17.3914C16.2992 15.435 13.1543 15.4109 11.2008 17.3364C11.1836 17.3536 11.163 17.3742 11.1459 17.3914L4.61929 24Z" fill="#5E647A"/>
<path d="M78.6883 0H78.6917C79.7389 0.0206304 80.7208 0.226934 81.634 0.618911C82.5644 0.98682 83.3815 1.49914 84.0785 2.15244C84.7823 2.80917 85.3316 3.58281 85.7264 4.46991C86.1247 5.34327 86.3238 6.2682 86.3238 7.2447C86.3238 8.24183 86.1144 9.19083 85.6921 10.0848C85.2973 10.9547 84.7342 11.7249 84.0133 12.3989C83.3129 13.0521 82.482 13.5748 81.5345 13.9633H81.531C80.5937 14.3347 79.5878 14.5203 78.5166 14.5203H69.5765V23.9175H66.4316V0L78.6883 0ZM78.5166 11.6218C79.1484 11.6218 79.7457 11.5083 80.3122 11.2814C80.8856 11.0544 81.3834 10.7415 81.8091 10.3427C82.2348 9.94728 82.5747 9.47622 82.815 8.94671C83.0588 8.42063 83.179 7.8533 83.179 7.2447C83.179 6.65673 83.0588 6.09971 82.815 5.57364C82.5747 5.04756 82.2314 4.57307 81.8091 4.17765C81.3834 3.7788 80.8856 3.46934 80.3122 3.23897C79.7457 3.01203 79.1484 2.89857 78.5166 2.89857H69.5765V11.6218H78.5166Z" fill="#5E647A"/>
<path d="M43.5834 14.5719C45.1593 14.5719 46.6527 15.239 47.6415 16.3874L54.1372 23.9209H58.1815L49.2963 13.4785C48.3076 12.3163 46.8072 11.639 45.2177 11.639H39.0619V2.93639H48.002C48.6337 2.93639 49.2311 3.04986 49.7976 3.27679C50.3709 3.50716 50.8688 3.82006 51.2945 4.21547L51.3013 4.22235C51.7236 4.59713 52.0567 5.04756 52.3004 5.58052C52.5442 6.10659 52.6643 6.67392 52.6643 7.28596C52.6643 7.89456 52.5407 8.46189 52.3004 8.98796C52.1528 9.29398 51.9743 9.58281 51.7614 9.84756L53.8076 12.1341C53.8316 12.1066 53.8591 12.0791 53.8831 12.0516C54.4874 11.3983 54.9543 10.6728 55.2805 9.86819C55.6307 9.05673 55.8057 8.1937 55.8057 7.28252C55.8057 6.30602 55.6066 5.37765 55.2084 4.5043C54.8135 3.61375 54.2642 2.84011 53.5604 2.18338C52.86 1.53009 52.0464 1.01089 51.1194 0.618911C50.2027 0.226934 49.2208 0.0206304 48.1702 0H37.4826C37.05 0 36.6723 0.161605 36.3633 0.453868C36.0647 0.732378 35.9102 1.07622 35.9102 1.46819V23.9175H39.055V14.5719H43.5834Z" fill="#5E647A"/>
</g>
<defs>
<clipPath id="clip0_2042_5989">
<rect width="85.8" height="24" fill="white" transform="translate(0.523438)"/>
</clipPath>
</defs>
</svg>
