<svg width="124" height="32" viewBox="0 0 124 32" fill="none" xmlns="http://www.w3.org/2000/svg">
<path d="M36.9559 8.38422H37.9392C38.1893 8.38422 38.393 8.58785 38.393 8.83803V17.6409C38.393 20.422 39.8999 22.1791 42.7043 22.1791C45.5086 22.1791 47.0155 20.422 47.0155 17.6409V8.83803C47.0155 8.58785 47.2192 8.38422 47.4694 8.38422H48.4526C48.7028 8.38422 48.9065 8.58785 48.9065 8.83803V17.6642C48.9065 21.4519 46.8294 23.8664 42.7043 23.8664C38.5792 23.8664 36.5021 21.4286 36.5021 17.6875V8.83803C36.4963 8.58785 36.6999 8.38422 36.9559 8.38422ZM51.8039 20.3755C51.9494 20.1893 52.2286 20.1719 52.3974 20.3348C53.4155 21.3239 54.9399 22.1791 56.8716 22.1791C59.5828 22.1791 60.4497 20.7188 60.4497 19.5551C60.4497 17.7282 58.6054 17.2279 56.5981 16.6809C54.1603 16.0409 51.4432 15.3602 51.4432 12.3697C51.4432 9.86203 53.6774 8.15149 56.6679 8.15149C58.8148 8.15149 60.5137 8.80894 61.7646 9.96676C61.945 10.1297 61.9625 10.4089 61.8054 10.5951L61.2119 11.3224C61.0665 11.5028 60.7988 11.5144 60.6301 11.3573C59.5188 10.3159 58.0526 9.83876 56.5283 9.83876C54.7014 9.83876 53.4039 10.822 53.4039 12.2533C53.4039 13.7835 55.161 14.2373 57.0985 14.7609C59.5828 15.4242 62.4105 16.198 62.4105 19.3922C62.4105 21.6031 60.9036 23.8606 56.8017 23.8606C54.3465 23.8606 52.4963 22.9937 51.2395 21.7369C51.0766 21.574 51.0592 21.3122 51.2046 21.1319L51.8039 20.3755ZM64.6621 8.83803C64.6621 8.58785 64.8657 8.38422 65.1159 8.38422H69.8577C74.5763 8.38422 77.6599 11.6889 77.6599 16.0002C77.6599 20.3348 74.5821 23.5929 69.8577 23.5929H65.1159C64.8657 23.5929 64.6621 23.3893 64.6621 23.1391V8.83803ZM69.8636 21.9057C73.5581 21.9057 75.6992 19.2584 75.6992 16.0002C75.6992 12.7129 73.6221 10.0715 69.8636 10.0715H66.5588V21.9057H69.8636ZM96.5865 18.0773C96.5865 14.8831 98.6869 12.3057 102.038 12.3057C105.389 12.3057 107.49 14.8831 107.49 18.0773C107.49 21.2715 105.389 23.8722 102.038 23.8722C98.6869 23.8722 96.5865 21.2657 96.5865 18.0773ZM105.686 18.0773C105.686 15.8431 104.389 13.8359 102.038 13.8359C99.6876 13.8359 98.3669 15.8431 98.3669 18.0773C98.3669 20.3348 99.6876 22.342 102.038 22.342C104.389 22.342 105.686 20.3348 105.686 18.0773ZM109.131 9.57112C109.131 8.93112 109.654 8.43076 110.271 8.43076C110.911 8.43076 111.435 8.93112 111.435 9.57112C111.435 10.2111 110.911 10.7348 110.271 10.7348C109.654 10.7348 109.131 10.2053 109.131 9.57112ZM109.881 12.5791H110.678C110.928 12.5791 111.132 12.7828 111.132 13.0329V23.1391C111.132 23.3893 110.928 23.5929 110.678 23.5929H109.881C109.631 23.5929 109.427 23.3893 109.427 23.1391V13.0329C109.427 12.7828 109.631 12.5791 109.881 12.5791ZM120.988 16.39C120.988 14.4526 120.005 13.8359 118.527 13.8359C117.183 13.8359 115.903 14.6562 115.263 15.5464V23.1391C115.263 23.3893 115.059 23.5929 114.809 23.5929H114.012C113.762 23.5929 113.558 23.3893 113.558 23.1391V13.0329C113.558 12.7828 113.762 12.5791 114.012 12.5791H114.809C115.059 12.5791 115.263 12.7828 115.263 13.0329V14.1733C116.037 13.2599 117.544 12.3057 119.184 12.3057C121.488 12.3057 122.699 13.4693 122.699 15.8606V23.1333C122.699 23.3835 122.495 23.5871 122.245 23.5871H121.448C121.197 23.5871 120.994 23.3835 120.994 23.1333V16.39H120.988ZM81.9828 16.0002C81.9828 11.3224 85.4272 8.13403 89.7385 8.13403C92.2927 8.13403 94.0847 9.24531 95.2949 10.7697C95.4461 10.9617 95.3938 11.2468 95.1785 11.3689L94.329 11.8402C94.137 11.9508 93.8927 11.8984 93.753 11.7297C92.8512 10.6126 91.3909 9.82712 89.7385 9.82712C86.4745 9.82712 83.9436 12.3813 83.9436 16.006C83.9436 19.6075 86.4745 22.1849 89.7385 22.1849C91.3967 22.1849 92.857 21.4169 93.753 20.2824C93.8927 20.1079 94.1312 20.0613 94.329 20.166L95.1901 20.6373C95.4112 20.7595 95.4636 21.0504 95.3065 21.2424C94.0498 22.7784 92.2927 23.8722 89.7385 23.8722C85.4272 23.8664 81.9828 20.678 81.9828 16.0002Z" fill="#5E647A"/>
<path d="M16.3246 30.8363C24.5185 30.8363 31.161 24.1938 31.161 15.9999C31.161 7.80604 24.5185 1.16357 16.3246 1.16357C8.13075 1.16357 1.48828 7.80604 1.48828 15.9999C1.48828 24.1938 8.13075 30.8363 16.3246 30.8363Z" fill="#5E647A"/>
<path d="M13.5425 26.3159C13.5425 26.665 13.269 26.8628 12.9315 26.7581C8.44572 25.3268 5.19336 21.1202 5.19336 16.1573C5.19336 11.1944 8.44572 6.98787 12.9315 5.55659C13.269 5.45187 13.5425 5.64968 13.5425 5.99878V6.85987C13.5425 7.09259 13.3621 7.36605 13.141 7.44168C9.59191 8.74496 7.04936 12.1544 7.04936 16.1515C7.04936 20.1486 9.59191 23.5581 13.141 24.8613C13.3621 24.9428 13.5425 25.2104 13.5425 25.4431V26.3159Z" fill="#23252F"/>
<path d="M17.2494 23.1098C17.2494 23.3658 17.04 23.5753 16.784 23.5753H15.8589C15.6029 23.5753 15.3934 23.3658 15.3934 23.1098V21.6437C13.3687 21.3702 12.3796 20.2357 12.112 18.6938C12.0654 18.432 12.2749 18.1935 12.5425 18.1935H13.6014C13.8225 18.1935 14.0087 18.3506 14.0552 18.5717C14.2531 19.4909 14.7825 20.1949 16.4058 20.1949C17.6043 20.1949 18.4538 19.5258 18.4538 18.5251C18.4538 17.5244 17.9534 17.1462 16.1963 16.8553C13.6014 16.5062 12.3738 15.7207 12.3738 13.6844C12.3738 12.1135 13.5607 10.8917 15.3992 10.6298V9.19275C15.3992 8.93675 15.6087 8.72729 15.8647 8.72729H16.7898C17.0458 8.72729 17.2552 8.93675 17.2552 9.19275V10.6706C18.7505 10.9382 19.6989 11.7877 20.0072 13.1957C20.0654 13.4633 19.856 13.7135 19.5825 13.7135H18.6051C18.3956 13.7135 18.2211 13.5738 18.1571 13.3702C17.8952 12.4742 17.2552 12.0902 16.144 12.0902C14.9163 12.0902 14.2822 12.6837 14.2822 13.5157C14.2822 14.3942 14.6429 14.8364 16.528 15.1098C19.0763 15.4589 20.3912 16.1862 20.3912 18.3564C20.3912 20.0029 19.1694 21.3353 17.2552 21.6437V23.1098H17.2494Z" fill="#23252F"/>
<path d="M19.7164 26.7578C19.3789 26.8625 19.1055 26.6647 19.1055 26.3156V25.4545C19.1055 25.1985 19.2626 24.96 19.5069 24.8727C23.056 23.5695 25.5986 20.16 25.5986 16.1629C25.5986 12.1658 23.056 8.75637 19.5069 7.4531C19.2858 7.37164 19.1055 7.104 19.1055 6.87128V6.01019C19.1055 5.6611 19.3789 5.45746 19.7164 5.568C24.2022 6.99928 27.4546 11.2058 27.4546 16.1687C27.4487 21.12 24.2022 25.3207 19.7164 26.7578Z" fill="#23252F"/>
</svg>
