<svg width="121" height="30" viewBox="0 0 121 30" fill="none" xmlns="http://www.w3.org/2000/svg">
<g clip-path="url(#clip0_2042_6000)">
<path fill-rule="evenodd" clip-rule="evenodd" d="M1.13638 0.588375C4.13076 4.26312 7.41834 8.87963 7.95016 9.62638L8.01135 9.71212C8.2948 10.1082 8.52881 10.4028 8.7065 10.6264C9.10109 11.1229 9.21809 11.2701 8.98271 11.4055C8.79291 11.5146 8.59686 11.5506 8.40144 11.5506C8.18042 11.5506 7.93131 11.4431 7.75 11.2691C7.62175 11.1461 6.74467 9.858 5.55016 7.98413C4.63624 6.55025 3.87141 5.36075 3.85068 5.34088C3.80236 5.29475 3.80323 5.29637 5.45701 8.28837C6.49543 10.1671 7.20581 11.5556 7.20581 11.6444C7.20581 11.8251 7.15711 11.9201 6.93659 12.1686C6.5691 12.5833 6.4049 13.049 6.28627 14.0129C6.15341 15.0934 5.77955 15.8568 4.74363 17.163C4.13726 17.9277 4.03799 18.0679 3.8849 18.3761C3.69222 18.7642 3.63928 18.9816 3.61767 19.4718C3.59507 19.99 3.63928 20.3248 3.79586 20.8201C3.93297 21.2539 4.07595 21.5404 4.44182 22.1131C4.75749 22.6075 4.93917 22.9749 4.93917 23.1186C4.93917 23.233 4.96078 23.2331 5.44989 23.1215C6.62055 22.8541 7.57106 22.3841 8.10562 21.808C8.43653 21.4514 8.5142 21.2545 8.5167 20.7659C8.51844 20.4462 8.50721 20.3794 8.4218 20.1955C8.28269 19.8961 8.02945 19.6474 7.47154 19.2616C6.74017 18.7561 6.42787 18.3493 6.34159 17.7896C6.27079 17.3305 6.35283 17.0065 6.7574 16.1493C7.17609 15.2619 7.27986 14.8837 7.35016 13.9893C7.39549 13.4114 7.45817 13.1835 7.62238 13.0006C7.7937 12.8099 7.94779 12.7452 8.3716 12.6866C9.06263 12.5912 9.50254 12.4104 9.86417 12.0735C10.178 11.7812 10.3092 11.4995 10.3294 11.0755L10.3447 10.7542L10.1693 10.5475C9.53451 9.799 0.711202 0 0.672118 0C0.663751 0 0.872659 0.26475 1.13638 0.588375ZM5.29568 20.0581C5.43928 19.801 5.36286 19.4706 5.12273 19.3091C4.89584 19.1566 4.54346 19.2285 4.54346 19.4272C4.54346 19.4879 4.57668 19.532 4.65135 19.571C4.77722 19.6365 4.78646 19.7101 4.68731 19.8606C4.58704 20.0131 4.59516 20.1471 4.71016 20.2381C4.89559 20.385 5.1582 20.3042 5.29568 20.0581ZM9.6163 6.04063C9.3331 5.99613 9.32111 5.99088 9.45447 5.97025C9.70983 5.9305 10.3131 5.98462 10.7286 6.0845C11.699 6.31775 12.582 6.91525 13.5245 7.97625L13.7748 8.25813L14.1331 8.2C15.6421 7.95475 17.1773 8.14963 18.4613 8.74938C18.8146 8.91438 19.3715 9.24287 19.4411 9.32725C19.4632 9.35412 19.504 9.52725 19.5315 9.71212C19.6269 10.3514 19.5792 10.8412 19.3857 11.2072C19.2806 11.4064 19.2747 11.4695 19.3454 11.64C19.4019 11.776 19.5593 11.8766 19.7153 11.8764C20.0343 11.876 20.3777 11.3544 20.5369 10.6287L20.6001 10.3405L20.7254 10.4839C21.4121 11.2708 21.9517 12.3439 22.0444 13.1076L22.0685 13.3068L21.9531 13.1257C21.7543 12.8142 21.5547 12.6021 21.299 12.4311C20.8382 12.1227 20.3509 12.0179 19.0605 11.9491C17.8949 11.887 17.2354 11.7863 16.5813 11.5706C15.4683 11.2038 14.9074 10.7151 13.5854 8.9615C12.9983 8.18262 12.6354 7.7515 12.2743 7.40462C11.4541 6.61587 10.6481 6.20237 9.6163 6.0405V6.04063ZM19.7039 7.77975C19.7333 7.25775 19.8033 6.9135 19.944 6.59912C19.9997 6.47463 20.0519 6.37288 20.0599 6.37288C20.068 6.37288 20.0438 6.46463 20.0061 6.57688C19.9038 6.882 19.887 7.29938 19.9575 7.78487C20.0469 8.40112 20.0979 8.48987 20.7418 9.15537C21.0439 9.46762 21.3953 9.86125 21.5226 10.0304L21.7543 10.3376L21.5226 10.118C21.2394 9.84937 20.5881 9.3255 20.4443 9.25075C20.3477 9.2005 20.3334 9.20138 20.2739 9.26125C20.2191 9.31637 20.2075 9.39937 20.1999 9.79125C20.188 10.4023 20.1057 10.7945 19.907 11.1865C19.7994 11.3986 19.7825 11.3534 19.8797 11.114C19.9524 10.9353 19.9598 10.8566 19.9593 10.2653C19.9582 9.07688 19.8185 8.79125 19.0003 8.30188C18.7931 8.17788 18.4515 7.999 18.2413 7.90438C18.0313 7.80988 17.8643 7.7275 17.8703 7.72137C17.8936 7.698 18.6916 7.9335 19.0128 8.0585C19.4905 8.24425 19.5693 8.26838 19.6274 8.246C19.6662 8.231 19.6851 8.11637 19.7039 7.77975ZM9.31274 6.86737C9.2357 7.78487 9.59145 9.01213 10.1665 9.81262C10.6123 10.4331 11.3033 10.9154 11.8135 10.9619C12.1474 10.9924 12.2478 10.8866 12.0967 10.6635C11.8869 10.3538 11.6288 9.87675 11.5605 9.6725C11.5181 9.54562 11.426 9.17088 11.3557 8.83975C11.1159 7.70913 10.88 7.26875 10.3356 6.93437C10.137 6.8125 9.7132 6.653 9.46746 6.60763L9.33659 6.5835L9.31274 6.86737ZM19.0065 15.7701C16.3192 14.6761 15.3727 13.7265 15.3727 12.1243C15.3727 11.8884 15.3808 11.6955 15.3905 11.6955C15.4004 11.6955 15.5043 11.7734 15.6215 11.8685C16.1665 12.3104 16.7767 12.4991 18.4661 12.7484C19.46 12.895 20.0195 13.0134 20.5356 13.1865C22.1757 13.7365 23.1905 14.8526 23.4325 16.373C23.5028 16.8147 23.4616 17.6431 23.3476 18.0798C23.2576 18.4246 22.9829 19.0461 22.9101 19.07C22.8898 19.0766 22.87 18.9984 22.8649 18.8919C22.8373 18.321 22.552 17.7652 22.0728 17.3489C21.528 16.8755 20.796 16.4988 19.0065 15.7701ZM16.9901 15.6497C17.0278 15.7634 17.0863 16.022 17.1199 16.2246C17.3351 17.5199 16.6627 18.5664 15.3547 18.9719C15.2162 19.0147 14.6708 19.1227 14.1426 19.2116C13.0733 19.3916 12.5962 19.5191 12.1167 19.7526C11.7768 19.9182 11.3651 20.1662 11.3896 20.1909C11.3974 20.1989 11.4751 20.1801 11.562 20.1493C12.1666 19.9346 12.8394 19.8235 13.8616 19.7698C14.2673 19.7485 14.7287 19.7145 14.8871 19.6944C15.7977 19.5784 16.429 19.2986 16.9198 18.7935C17.1929 18.5124 17.3557 18.2505 17.487 17.8813C17.5701 17.6471 17.5814 17.56 17.582 17.145C17.5828 16.7221 17.5726 16.6447 17.4825 16.3846C17.3645 16.0436 17.2253 15.7877 17.0489 15.5876L16.9216 15.4431L16.9901 15.6497ZM18.3518 18.4368C17.9947 17.6606 17.9128 16.9114 18.1083 16.2126C18.1293 16.1379 18.1629 16.0767 18.1833 16.0767C18.2035 16.0767 18.2876 16.1229 18.3704 16.1791C18.5349 16.2911 18.8649 16.4797 19.744 16.9644C20.8411 17.5691 21.4666 18.0374 21.8919 18.5725C22.2644 19.041 22.4949 19.5746 22.6058 20.2254C22.6687 20.594 22.6319 21.481 22.5383 21.8521C22.2434 23.0225 21.5579 23.9417 20.5801 24.4783C20.4369 24.5568 20.3083 24.6213 20.2943 24.6216C20.2804 24.6219 20.3326 24.4878 20.4103 24.3234C20.7392 23.6281 20.7767 22.9519 20.5281 22.1992C20.3757 21.7384 20.0653 21.176 19.4384 20.2255C18.7097 19.1205 18.531 18.8264 18.3518 18.4368ZM11.6263 20.9823C10.4963 21.1679 9.2553 21.7726 8.25809 22.624L7.96128 22.8775L8.22225 22.9188C9.58371 23.1336 9.95045 23.3243 10.8948 24.308C11.4383 24.874 11.6218 25 12.0727 25.1164C12.7348 25.2873 13.3875 24.9732 13.6114 24.376C13.7114 24.1091 13.698 23.6672 13.5833 23.4452C13.3103 22.917 12.515 22.7463 12.1306 23.1332C11.8101 23.4556 11.9035 23.9412 12.3019 24.0247C12.393 24.044 12.3905 24.0399 12.2787 23.9888C12.1043 23.909 12.0285 23.7985 12.0277 23.6226C12.0254 23.2103 12.4922 22.9788 12.9262 23.1768C13.2441 23.3219 13.3704 23.5114 13.3704 23.8436C13.3704 24.3552 12.9397 24.7407 12.4386 24.6777C12.1706 24.644 11.843 24.4707 11.6674 24.2699C11.2254 23.7646 11.3976 22.9671 12.0147 22.6611C12.4846 22.4282 13.109 22.4856 13.5934 22.8062C14.1498 23.1747 14.3865 23.5115 14.8657 24.6168C15.0218 24.9766 15.2226 25.3818 15.3119 25.5169C15.7659 26.2041 16.3098 26.5411 16.965 26.5411C17.3264 26.5411 17.5982 26.4744 17.9403 26.3018C18.1944 26.1734 18.5546 25.9295 18.5286 25.9034C18.5213 25.896 18.4159 25.9291 18.2944 25.977C17.579 26.2591 16.8518 26.2398 16.4295 25.9271C16.1635 25.7304 15.949 25.3384 15.8387 24.8481C15.8196 24.7633 15.7567 24.3885 15.6987 24.0152C15.5519 23.0693 15.4109 22.644 15.0821 22.156C14.7457 21.6567 14.099 21.2377 13.376 21.0506C12.925 20.9339 12.1136 20.9021 11.6263 20.9823ZM10.0435 13.6681C10.141 13.3036 10.4563 12.956 10.7807 12.8553C10.987 12.7913 11.4133 12.8321 11.6138 12.9351C12.0022 13.1349 12.2844 13.5898 12.2232 13.9181C12.1484 14.3185 11.5063 14.6389 10.7676 14.6441C10.3902 14.6468 10.2509 14.5955 10.1069 14.401C10.0176 14.2805 9.98392 13.8905 10.0435 13.6681ZM11.5146 13.0779C11.7084 13.1975 11.7581 13.3744 11.6443 13.538C11.5658 13.6508 11.3229 13.7579 11.1453 13.7579C10.8786 13.7579 10.5877 13.5664 10.5877 13.391C10.5877 13.0386 11.1457 12.85 11.5146 13.0779ZM69.4169 14.0868C68.8141 12.0801 69.8081 10.4157 71.9285 9.881C72.5368 9.7275 75.2905 9.79675 75.7623 9.9775C75.9355 10.0436 76.0109 10.2977 76.0125 10.82C76.0136 11.2312 76.0586 11.7309 76.1119 11.93C76.1932 12.232 76.1458 12.2915 75.8273 12.2866C75.5395 12.2821 75.3654 12.1132 75.1223 11.6023C74.734 10.786 74.2638 10.5265 73.1685 10.5235C71.7698 10.5194 70.7465 11.462 70.9132 12.6009C71.0217 13.342 71.7614 14.0712 73.4215 15.0737C75.0009 16.0274 75.9227 16.8116 76.2901 17.5142C77.2723 19.3927 76.4336 21.403 74.2451 22.4159C73.1218 22.9357 71.2391 22.9895 69.9156 22.5395L69.068 22.2512V20.8955C69.068 19.6677 69.0972 19.5395 69.3767 19.5395C69.6106 19.5395 69.7117 19.6943 69.7937 20.179C69.9979 21.3844 70.9129 22.1161 72.2162 22.1161C73.4929 22.1161 74.3855 21.4179 74.7272 20.1518C74.8728 19.6124 74.8479 19.4135 74.559 18.8185C74.2129 18.1051 73.6168 17.6318 71.5925 16.4627C70.4693 15.814 69.675 14.9466 69.4169 14.0868ZM29.7356 10.682C29.4594 10.682 29.3517 10.5916 29.3517 10.3599C29.3517 10.0531 29.4594 10.0379 31.6238 10.0379C33.6327 10.0379 33.8899 10.0681 33.8437 10.2989C33.815 10.4426 33.5373 10.6417 33.2265 10.7417L32.6614 10.9236L32.6131 15.0302C32.5809 17.7705 32.6262 19.3512 32.7496 19.781C33.1161 21.0591 34.2339 21.7941 35.8113 21.7941C36.9094 21.7941 37.5508 21.5371 38.3569 20.7739C39.2236 19.9534 39.3618 19.1737 39.3591 15.1217C39.3564 11.1249 39.2869 10.795 38.4294 10.7121C38.0392 10.6742 37.9085 10.5834 37.9085 10.3497C37.9085 10.0585 38.0373 10.0379 39.8458 10.0379C41.6755 10.0379 41.7832 10.0557 41.7832 10.3599C41.7832 10.5584 41.6748 10.683 41.5007 10.6844C40.7529 10.691 40.7391 10.7622 40.6386 15.1449C40.5341 19.6962 40.4366 20.235 39.5152 21.3499C39.2494 21.6715 38.6157 22.1385 38.107 22.3878C37.278 22.7939 37.0144 22.8406 35.5675 22.8379C34.2338 22.8351 33.8127 22.7706 33.1458 22.4667C32.1722 22.0231 31.5392 21.449 31.0724 20.5863C30.7467 19.984 30.7187 19.6581 30.6433 15.5778C30.557 10.9071 30.5152 10.682 29.7356 10.682ZM44.8431 10.682C44.4741 10.682 44.3664 10.6093 44.3664 10.3599C44.3664 10.058 44.4696 10.0386 46.0213 10.0511L47.676 10.0642L48.4678 10.977C48.9031 11.479 50.322 13.0494 51.6209 14.4666C52.9198 15.8837 54.4109 17.5324 54.9345 18.1303C55.4582 18.7283 55.9512 19.2174 56.03 19.2174C56.1107 19.2174 56.1512 17.5284 56.1222 15.3381L56.0714 11.4589L55.6184 11.0705C55.3693 10.8568 54.9879 10.682 54.7708 10.682C54.4819 10.682 54.3762 10.5945 54.3762 10.3554C54.3762 10.0409 54.4587 10.0304 56.5961 10.0736C58.4135 10.1102 58.8161 10.1611 58.8161 10.3534C58.8161 10.4904 58.5913 10.6341 58.2762 10.6984C57.9795 10.759 57.6526 10.8924 57.5497 10.9948C57.4173 11.127 57.3496 12.8365 57.3169 16.8901L57.2705 22.5993H56.8027C56.3998 22.5993 55.9203 22.1455 53.3566 19.3381C51.7187 17.5444 49.8069 15.4126 49.1082 14.6009C48.4093 13.789 47.7829 13.1186 47.7165 13.1112C47.5291 13.0903 47.5744 20.3435 47.7661 21.032C47.9155 21.5685 48.0182 21.6609 48.6531 21.8304C49.1645 21.9668 49.3713 22.1051 49.3713 22.3106C49.3713 22.5745 49.1765 22.5993 47.111 22.5993C45.0087 22.5993 44.8507 22.5782 44.8507 22.2974C44.8507 22.0917 45.0028 21.9651 45.3279 21.9002C46.3136 21.7036 46.379 21.3915 46.4344 16.6203C46.4654 13.948 46.4198 12.0783 46.3141 11.6868C46.1283 10.9984 45.6652 10.682 44.8431 10.682ZM61.772 10.682C61.4262 10.682 61.3184 10.6055 61.3184 10.3599C61.3184 10.0521 61.4262 10.0379 63.7402 10.0379C66.0543 10.0379 66.1619 10.0521 66.1619 10.3599C66.1619 10.5961 66.0543 10.682 65.7583 10.682C65.5363 10.682 65.2065 10.8299 65.0253 11.0106C64.7055 11.3296 64.6973 11.4881 64.7428 16.4188C64.7872 21.2319 64.8061 21.5104 65.103 21.7267C65.2755 21.8524 65.5841 21.9551 65.7892 21.9551C66.0543 21.9551 66.1619 22.0481 66.1619 22.2773C66.1619 22.585 66.0543 22.5993 63.7402 22.5993C61.4811 22.5993 61.3184 22.579 61.3184 22.2979C61.3184 22.0711 61.477 21.9711 61.9582 21.8943C62.9134 21.7419 62.9624 21.4299 62.9028 15.8625C62.8551 11.404 62.8346 11.126 62.5388 10.9104C62.3665 10.7847 62.0215 10.682 61.772 10.682ZM78.6647 10.682C78.444 10.682 78.276 10.5595 78.2237 10.3599C78.1422 10.0485 78.2188 10.0379 80.546 10.0379C82.8449 10.0379 82.9525 10.0521 82.9525 10.3599C82.9525 10.6074 82.8449 10.682 82.4879 10.682C81.4716 10.682 81.4943 10.8663 83.0326 15.0779C83.8155 17.2218 84.5757 19.2582 84.7218 19.6034L84.9874 20.231L86.2205 16.9461C87.6721 13.0795 87.8607 12.3645 87.6142 11.6593C87.4424 11.1678 86.7743 10.682 86.2703 10.682C86.1277 10.682 86.0201 10.5435 86.0201 10.3599C86.0201 10.0516 86.1277 10.0379 88.5225 10.0379C90.9172 10.0379 91.025 10.0516 91.025 10.3599C91.025 10.5891 90.9172 10.682 90.6521 10.682C89.9735 10.682 89.6742 11.0431 89.7717 11.7445C89.8721 12.4668 92.6488 20.2279 92.7652 20.1117C92.9547 19.9229 96.0298 11.568 96.0298 11.2423C96.0298 10.8521 95.7562 10.682 95.1286 10.682C94.8459 10.682 94.7383 10.5932 94.7383 10.3599C94.7383 10.0557 94.8459 10.0379 96.6756 10.0379C98.319 10.0379 98.613 10.0759 98.613 10.2879C98.613 10.4254 98.4117 10.6079 98.1657 10.6932C97.6121 10.8857 97.4732 11.1054 96.779 12.8848C96.0723 14.6962 95.3654 16.5075 94.6585 18.3189C94.1084 19.7278 93.559 21.137 93.0101 22.5464C92.9647 22.6641 92.6979 22.7604 92.4167 22.7604H91.9056L90.7459 19.7407C90.1861 18.284 89.6279 16.8266 89.0714 15.3686C88.5863 14.0938 88.5456 14.0384 88.363 14.4023C88.2564 14.6149 87.4902 16.5859 86.66 18.7824L85.1509 22.7761L84.5875 22.728L84.0242 22.6799L81.8758 17.0559C80.6757 13.9138 79.5718 11.2663 79.3745 11.0569C79.1803 10.8506 78.8609 10.682 78.6647 10.682ZM110.947 10.7502C110.92 10.6891 110.92 10.4692 110.92 10.4692C110.92 10.4692 110.914 10.39 110.947 10.3476C110.98 10.3055 110.992 10.3044 111.11 10.2931L111.112 10.293C111.548 10.2515 112.422 10.1816 113.152 10.1497C113.219 10.1469 113.294 10.1435 113.376 10.1397H113.377C114.18 10.1031 115.618 10.0544 116.606 10.1038C118.501 10.1986 119.849 11.1158 120.309 12.6315C120.768 14.1471 120.526 15.5699 119.899 16.4755C119.273 17.3811 118.22 18.1609 116.469 18.1101C115.024 18.0682 114.638 17.7974 114.329 17.581C114.264 17.5352 114.202 17.4919 114.134 17.4538V19.3866C114.149 20.7049 114.16 21.338 114.262 21.5724C114.4 21.8879 114.71 22.0823 115.315 22.2313C115.315 22.2313 115.589 22.2955 115.66 22.364C115.73 22.4325 115.73 22.5846 115.73 22.5846C115.73 22.5846 115.745 22.7269 115.688 22.7994C115.631 22.8719 115.522 22.8574 115.522 22.8574L112.842 22.8358L111.226 22.8315C111.226 22.8315 111.057 22.8641 110.993 22.7957C110.93 22.7274 110.936 22.585 110.936 22.585C110.936 22.585 110.949 22.4316 111.024 22.363C111.098 22.2944 111.374 22.2175 111.374 22.2175C111.997 22.0424 112.267 21.8571 112.408 21.5081C112.522 21.2269 112.523 20.705 112.522 16.4471C112.52 12.4092 112.515 11.656 112.422 11.4394C112.285 11.1187 111.942 11.0338 111.455 10.9129H111.454C111.352 10.8878 111.249 10.8616 111.147 10.8345C111.147 10.8345 110.974 10.8115 110.947 10.7502ZM118.749 14.0451C118.749 14.7072 118.738 15.7439 118.033 16.4065C117.329 17.0691 115.943 17.2505 115.002 17.066C114.705 17.0079 114.536 16.9182 114.405 16.8491L114.392 16.8423L114.151 16.7153L114.137 14.3889C114.128 12.9312 114.143 11.9816 114.178 11.8459C114.209 11.0771 115.341 10.9816 115.895 11.0101C118.262 11.0101 118.68 13.0069 118.749 14.0451ZM103.424 10.1617L103.222 10.239L102.589 10.5659L102.134 11.7034C101.884 12.3291 101.426 13.4776 101.117 14.2557C100.677 15.3636 100.235 16.4703 99.7896 17.576C99.6744 17.8619 99.3266 18.7324 99.0168 19.5105C98.7069 20.2885 98.3972 21.029 98.3285 21.156L98.2922 21.224C98.119 21.5499 97.8179 22.1161 97.2865 22.2017C97.2865 22.2017 96.9942 22.2305 96.8859 22.3375C96.7776 22.4446 96.7881 22.5321 96.7881 22.5321V22.667C96.7881 22.667 96.798 22.7324 96.8593 22.7649C96.9206 22.7975 97.0036 22.7994 97.0036 22.7994L98.948 22.7773H100.958C100.958 22.7773 101.1 22.7939 101.155 22.7484C101.209 22.7029 101.225 22.6354 101.225 22.6354V22.4934C101.225 22.4934 101.197 22.3394 101.117 22.2792C101.038 22.2192 100.739 22.1781 100.739 22.1781C99.9347 22.0723 99.7962 21.4631 99.8955 20.9154C99.9442 20.6462 100.268 19.6508 100.632 18.6485L100.758 18.3021L102.863 18.286C104.021 18.2771 105.021 18.2831 105.085 18.2994C105.177 18.3225 105.305 18.5826 105.68 19.5091C106.25 20.9129 106.295 21.0839 106.169 21.3465C106.162 21.3625 106.153 21.3801 106.145 21.3991C106.026 21.6531 105.797 22.1466 105.218 22.1969C105.218 22.1969 104.911 22.2075 104.835 22.2994C104.758 22.3914 104.775 22.4971 104.775 22.4971V22.6376C104.775 22.6376 104.795 22.72 104.835 22.7526C104.874 22.7852 104.941 22.777 104.941 22.777L106.852 22.7633L109.539 22.7631C109.539 22.7631 109.644 22.7744 109.673 22.7339C109.702 22.6933 109.708 22.6455 109.708 22.6455V22.4589C109.708 22.4589 109.696 22.3596 109.644 22.3049C109.593 22.2502 109.244 22.1925 109.244 22.1925C108.799 22.1206 108.578 21.7529 108.412 21.479C108.37 21.4091 108.332 21.3454 108.294 21.2943C108.218 21.1899 107.945 20.6179 107.731 20.0678C107.517 19.5176 107.034 18.2749 106.658 17.3062C106.282 16.3376 105.757 14.9864 105.492 14.3036C105.066 13.2075 104.641 12.1113 104.216 11.0149L104.216 11.0146C103.98 10.4066 103.885 10.1613 103.859 10.128C103.775 10.0203 103.512 10.128 103.512 10.128C103.512 10.128 103.48 10.1405 103.424 10.1617ZM103.387 13.8269C103.275 13.5532 103.165 13.279 103.056 13.0041C102.879 12.5567 102.811 12.4538 102.756 12.5461C102.74 12.5731 102.629 12.8789 102.508 13.2256C101.729 15.4706 101.376 16.4815 101.305 16.672C101.261 16.7917 101.225 16.9151 101.225 16.9463C101.225 16.982 101.858 17.0029 102.944 17.0029C103.89 17.0029 104.664 16.9911 104.664 16.9767C104.664 16.9624 104.58 16.7481 104.476 16.5004C104.373 16.2528 104.121 15.6343 103.915 15.1261C103.74 14.6927 103.564 14.2596 103.387 13.8269Z" fill="#5E647A"/>
</g>
<defs>
<clipPath id="clip0_2042_6000">
<rect width="120" height="30" fill="white" transform="translate(0.667969)"/>
</clipPath>
</defs>
</svg>
