<svg width="32" height="18" viewBox="0 0 32 18" fill="none" xmlns="http://www.w3.org/2000/svg">
<g clip-path="url(#clip0_2042_6002)">
<path d="M35.4324 17.2547C34.6226 17.2547 33.8095 17.2311 33.0099 17.1774C32.166 17.1208 31.3272 17.004 30.5 16.828V2.48212C31.1787 2.3511 31.9347 2.26375 32.7478 2.19655C33.5575 2.12936 34.3135 2.09912 35.0157 2.09912C35.9599 2.09912 36.8234 2.16631 37.613 2.30742C38.4025 2.43845 39.0812 2.67027 39.6524 2.99616C40.2236 3.32541 40.6705 3.75209 40.9897 4.28963C41.3089 4.82718 41.4735 5.48568 41.4735 6.26177C41.4735 7.44438 40.9034 8.37613 39.7633 9.05703C40.7074 9.40643 41.3425 9.90031 41.6818 10.505C42.0212 11.1199 42.1959 11.8086 42.1959 12.5746C42.1959 14.1301 41.6247 15.2926 40.4958 16.072C39.3467 16.8716 37.6701 17.2547 35.4324 17.2547ZM33.7457 8.08272H35.3685C36.4 8.08272 37.1224 7.95169 37.5726 7.68963C38.0094 7.42758 38.2312 7.0009 38.2312 6.41967C38.2312 5.81829 38.0027 5.40169 37.5525 5.15979C37.0922 4.9179 36.4235 4.79695 35.5466 4.79695C35.261 4.79695 34.9553 4.79695 34.626 4.80703C34.2967 4.8171 34.0111 4.83054 33.749 4.86078C33.7457 4.86078 33.7457 8.08272 33.7457 8.08272ZM33.7457 10.626V14.4493C33.9876 14.4829 34.2497 14.5031 34.5353 14.5165C34.8209 14.5299 35.1367 14.54 35.4794 14.54C36.4773 14.54 37.277 14.3989 37.8918 14.1133C38.5067 13.8278 38.8124 13.3037 38.8124 12.5343C38.8124 11.8556 38.5604 11.3618 38.0464 11.0762C37.5323 10.7805 36.7965 10.6394 35.8423 10.6394H33.749V10.626H33.7457Z" fill="#5E647A"/>
<path fill-rule="evenodd" clip-rule="evenodd" d="M20.127 17.4768C24.7599 14.2299 25.8834 7.84215 22.6362 3.20948C21.9521 2.23355 21.103 1.38447 20.127 0.700439H27.8255V17.4768H20.127Z" fill="#5E647A"/>
<path fill-rule="evenodd" clip-rule="evenodd" d="M4.01052 9.08732C4.00779 12.4281 5.63735 15.5594 8.37505 17.4743H0.667969V0.700439H8.37495C5.63732 2.61528 4.0078 5.74663 4.01052 9.08732Z" fill="#5E647A"/>
<path d="M14.2469 17.4641C18.876 17.4641 22.6286 13.7118 22.6286 9.083C22.6286 4.45425 18.876 0.701904 14.2469 0.701904C9.61784 0.701904 5.86523 4.45425 5.86523 9.083C5.86523 13.7118 9.61784 17.4641 14.2469 17.4641Z" fill="#5E647A"/>
<path d="M18.1782 9.43145L18.1735 9.42278L18.1727 9.42134C18.1699 9.4126 18.1678 9.4035 18.1646 9.39405L18.1642 9.39335L18.1638 9.39261L18.1634 9.39187L18.163 9.3911L18.1626 9.39039L18.1622 9.38965L18.1614 9.38824C18.0631 9.05922 17.868 8.76738 17.6016 8.55064L17.6012 8.5499C17.5933 8.54392 17.585 8.5372 17.5772 8.53115L17.5663 8.52306L17.5584 8.51708L17.555 8.51422L17.5476 8.50898L17.5442 8.50612L17.5367 8.50085L17.5334 8.49799L17.5255 8.49198L17.5214 8.48956L17.5135 8.48355L17.5093 8.48113L17.5007 8.47552L17.4966 8.4731L17.4916 8.46554L17.4871 8.46238L17.4785 8.45674L17.474 8.45361L17.4653 8.44797L17.4608 8.44481L17.4522 8.43923L17.4477 8.43604L17.4387 8.42972L17.4342 8.42653L17.4245 8.42059L17.42 8.41743L17.4103 8.41151L17.4058 8.40832L17.3961 8.40241L17.3916 8.39925L17.3818 8.39327L17.3766 8.39055L17.3669 8.3846L17.3616 8.38182L17.3512 8.37627L17.3459 8.37348L17.3351 8.36723L17.3299 8.36448L17.319 8.3582L17.3138 8.35544L17.3029 8.34916L17.2974 8.3458L17.2865 8.33955L17.2809 8.33619L17.2694 8.33028L17.2638 8.32692L17.2522 8.32104L17.2444 8.31687L17.244 8.31617C17.2384 8.31281 17.2325 8.31025 17.2268 8.30673C16.9872 8.18353 16.7284 8.10175 16.4615 8.06483C16.5364 7.98437 16.6049 7.89826 16.6665 7.80728L16.6763 7.79266L16.6771 7.79226L16.6816 7.78514L16.6876 7.77543L16.6909 7.77096L16.6969 7.76118L16.7 7.75671L16.7059 7.747L16.7093 7.7425L16.7152 7.73276L16.7184 7.72826L16.7243 7.71855L16.7275 7.71401L16.7327 7.7047L16.7359 7.7002L16.7411 7.6909L16.7436 7.68676L16.7488 7.67746L16.7513 7.67336L16.7565 7.66405L16.7589 7.65992L16.7634 7.65095L16.7658 7.64685L16.7703 7.63791L16.7728 7.63382L16.7773 7.62488L16.7797 7.62075L16.7846 7.61255L16.787 7.60842L16.7919 7.60015L16.7944 7.59609L16.7985 7.58826L16.8009 7.58413L16.8051 7.57633L16.8069 7.5726L16.811 7.56477L16.8127 7.56104L16.8169 7.55325L16.8187 7.54955L16.8228 7.54173L16.8245 7.538L16.8279 7.53057L16.8296 7.52684L16.833 7.51938L16.8347 7.51566L16.8381 7.50823L16.8398 7.5045L16.8436 7.49593L16.8488 7.48478C16.8526 7.47625 16.8555 7.46798 16.8594 7.45951L16.8601 7.45911C16.975 7.17604 17.0019 6.86494 16.9374 6.56634L16.937 6.5656L16.9362 6.56416L16.9358 6.56345L16.9354 6.56268L16.935 6.56194L16.9346 6.5612L16.9342 6.5605L16.9338 6.55976C16.9322 6.5514 16.9303 6.54312 16.9279 6.53496V6.53315L16.9274 6.53241L16.927 6.53164L16.9266 6.5309L16.927 6.53164L16.9237 6.52519C16.9211 6.51353 16.9185 6.50184 16.9149 6.48988C16.9124 6.47822 16.9087 6.46616 16.9054 6.45494L16.9011 6.44701L16.9003 6.44553C16.8979 6.43753 16.8954 6.42954 16.893 6.42154L16.8926 6.42084L16.8922 6.4201L16.8918 6.41936L16.8914 6.41862L16.891 6.41788L16.8906 6.41714L16.8902 6.4164C16.8028 6.12364 16.6293 5.86398 16.3922 5.67126L16.3918 5.67052C16.3851 5.66487 16.3775 5.65956 16.3707 5.65392L16.3613 5.64687L16.3538 5.64159L16.3505 5.63877L16.3441 5.63383L16.3407 5.63097L16.3344 5.62603L16.331 5.62321L16.3245 5.61891L16.3211 5.61606L16.3136 5.61078L16.3103 5.60796L16.3028 5.60268L16.2994 5.59983L16.2919 5.59459L16.2878 5.59214L16.2803 5.58689L16.2762 5.58444L16.2687 5.57917L16.2646 5.57671L16.2564 5.57184L16.2523 5.56939L16.244 5.56449L16.2399 5.5621L16.2317 5.55716L16.2275 5.55474L16.2193 5.5498L16.2152 5.54742L16.2066 5.54177L16.2024 5.53939L16.1938 5.53374L16.1897 5.53133L16.1804 5.52608L16.1762 5.52367L16.1669 5.51842L16.1624 5.51527L16.1531 5.51003L16.1486 5.50683L16.1393 5.50163L16.1348 5.49843L16.125 5.49252L16.1198 5.48977L16.1101 5.48385L16.1048 5.48106L16.0944 5.47549L16.0892 5.47273L16.0787 5.46716L16.0713 5.4638L16.0709 5.46306L16.0552 5.45472C15.5975 5.21686 15.016 5.14523 14.4309 5.29548L14.2787 5.33455L13.8933 3.83569L13.0013 4.06435L13.385 5.55736L12.6714 5.74037L12.2875 4.25169L11.3955 4.48038L11.7792 5.97336L9.93945 6.44677L10.1842 7.39803L10.9255 7.20767C11.1709 7.14451 11.421 7.29218 11.4842 7.53753V7.53827L12.513 11.541C12.555 11.7048 12.4564 11.8717 12.2927 11.914L11.6432 12.081L11.6814 13.2124L13.5189 12.7402L13.9076 14.2305L14.7992 14.0011L14.4152 12.5074L15.1287 12.3244L15.513 13.8179L16.4046 13.5886L16.0194 12.089C16.1706 12.0496 16.3004 12.016 16.3903 11.9927C17.0497 11.8233 17.5829 11.4365 17.9057 10.9546L17.9165 10.9385L17.9173 10.9381L17.9225 10.9306L17.9295 10.9194L17.9329 10.9138L17.9399 10.9026L17.9433 10.897L17.9496 10.8862L17.9529 10.8805L17.9592 10.8697L17.962 10.8645L17.9682 10.8537L17.971 10.8484L17.9773 10.8376L17.98 10.8323L17.9856 10.8219L17.9884 10.8167L17.9939 10.8063L17.9967 10.801L18.0027 10.7913L18.0054 10.786L18.0113 10.7763L18.0141 10.7711L18.0193 10.7617L18.0221 10.7565L18.0273 10.7472L18.0301 10.742L18.0353 10.7327L18.0374 10.7278L18.0426 10.7185L18.0447 10.7137L18.0492 10.7047L18.0516 10.7006L18.0561 10.6916L18.0586 10.6875L18.063 10.6785L18.0655 10.6744L18.07 10.6655L18.0724 10.6614L18.0769 10.6524L18.0793 10.6483L18.0838 10.6393L18.0863 10.6352L18.09 10.6267L18.0924 10.6225L18.0962 10.614L18.0979 10.6103L18.1021 10.6006L18.1075 10.5883C18.1117 10.5787 18.1162 10.5697 18.1196 10.5604L18.1199 10.5594C18.2489 10.2409 18.2793 9.89106 18.2071 9.55515L18.2067 9.55448L18.2063 9.55374L18.2059 9.55297L18.2055 9.55226L18.2051 9.55152L18.2047 9.55078L18.2043 9.55004L18.2039 9.54931C18.2018 9.54035 18.1997 9.53124 18.1976 9.52199V9.52014L18.1972 9.51944L18.1968 9.5187L18.1964 9.51793L18.196 9.51719L18.1956 9.51648L18.1951 9.51574L18.1948 9.515L18.1944 9.51423L18.194 9.51352L18.1936 9.51279L18.1932 9.51205L18.1928 9.51131L18.1924 9.5106L18.1908 9.50771C18.1875 9.49461 18.1849 9.4811 18.1808 9.46837C18.1809 9.46071 18.179 9.44697 18.1782 9.43145ZM12.9369 6.75354C13.0891 6.71447 13.7184 6.55643 13.9259 6.50251C14.2557 6.41805 14.5807 6.45084 14.8346 6.57306L14.8432 6.57686L14.8469 6.57861L14.8521 6.58136L14.8547 6.58274L14.86 6.58553L14.8626 6.5869L14.8678 6.58969L14.8704 6.5911L14.8757 6.59386L14.8783 6.59527L14.8835 6.59802L14.8861 6.59944L14.8914 6.60219L14.894 6.6036L14.8992 6.60636L14.9019 6.60777L14.9071 6.61049L14.9097 6.61193L14.915 6.61469L14.9175 6.6161L14.922 6.61926L14.9247 6.62067L14.9292 6.62383L14.9318 6.62521L14.9363 6.6284L14.9389 6.62977L14.943 6.63223L14.9456 6.6336L14.9498 6.63606L14.9524 6.63743L14.9565 6.63989L14.9591 6.6413L14.9633 6.64372L14.9659 6.64513L14.97 6.64755L14.9719 6.64933L14.976 6.65175L14.9775 6.65282L14.9816 6.65527L14.9831 6.65632L14.9873 6.65877L14.9887 6.65984L14.9929 6.66226L14.9944 6.66334L14.9978 6.66619L14.9993 6.66723L15.0034 6.66969L15.009 6.67305C15.0131 6.6755 15.0169 6.67909 15.021 6.68151C15.1509 6.77959 15.2463 6.91633 15.2936 7.07208L15.2948 7.07426C15.296 7.07826 15.2976 7.083 15.2989 7.08699L15.2993 7.0877L15.3016 7.09207C15.3032 7.09879 15.3052 7.10406 15.3069 7.11061C15.3087 7.11721 15.3098 7.12396 15.3103 7.13077L15.3126 7.13514L15.313 7.13588C15.3137 7.14037 15.3148 7.14477 15.3164 7.14901L15.3176 7.15116C15.3509 7.31036 15.3331 7.47602 15.2667 7.62451L15.2609 7.63795L15.2578 7.6443L15.2554 7.6484L15.2547 7.65058L15.253 7.65431L15.2523 7.65656L15.2499 7.66063L15.2492 7.66284L15.2468 7.66694L15.2461 7.66919L15.2437 7.67329L15.2431 7.67554L15.2406 7.67961L15.2399 7.68183L15.2375 7.68589L15.2369 7.68814L15.2344 7.69221L15.233 7.69486L15.2306 7.69896L15.2292 7.70158L15.2268 7.70568L15.2254 7.70833L15.2229 7.71247L15.2215 7.71509L15.2184 7.71955L15.217 7.72218L15.2136 7.72668L15.2122 7.7293L15.209 7.73377L15.2076 7.73642L15.2045 7.74089L15.2031 7.74354L15.1997 7.74801L15.1983 7.75067L15.1952 7.75513L15.1938 7.75775L15.1906 7.76226L15.1892 7.76484L15.186 7.76935L15.1847 7.77197L15.1808 7.77687L15.1793 7.77949L15.1755 7.7844L15.1741 7.78702L15.1702 7.79192L15.1688 7.79454L15.165 7.79945L15.1621 7.80281L15.1568 7.8103C14.9928 8.0401 14.7239 8.22583 14.3941 8.31019C14.1862 8.36344 13.5587 8.528 13.4065 8.5671L12.9369 6.75354ZM16.4237 9.82262L16.426 9.82695L16.4264 9.82769C16.4273 9.83283 16.4285 9.83679 16.4294 9.8419L16.4298 9.84264L16.4302 9.84338L16.4306 9.84415L16.431 9.84486C16.4662 10.0205 16.441 10.2028 16.3593 10.3622L16.3513 10.3768L16.3475 10.3835L16.3447 10.3887L16.3433 10.3913L16.3409 10.3955L16.3395 10.3981L16.337 10.4022L16.3356 10.4048L16.3323 10.4094L16.3309 10.4119L16.3277 10.4164L16.3263 10.4191L16.3232 10.4235L16.3218 10.4262L16.3186 10.4307L16.3172 10.4333L16.3139 10.4378L16.3125 10.4404L16.3093 10.4449L16.3079 10.4475L16.3047 10.452L16.3033 10.4546L16.2999 10.4591L16.2986 10.4617L16.2954 10.4662L16.294 10.4689L16.2901 10.4738L16.2888 10.4764L16.2849 10.4813L16.2835 10.4839L16.2801 10.4895L16.2787 10.4921L16.2753 10.4977L16.2739 10.5003L16.2706 10.5059L16.2685 10.5089L16.2651 10.5145L16.263 10.5175L16.2588 10.5235L16.2566 10.5265L16.2524 10.5325L16.2503 10.5355L16.2461 10.5415L16.244 10.5445L16.2397 10.5505L16.2377 10.5535L16.2334 10.5595L16.23 10.5633L16.2233 10.5715C16.0241 10.8259 15.7025 11.0351 15.3124 11.1353C15.0663 11.1989 14.3226 11.3934 14.1417 11.4396L13.6354 9.46965C13.816 9.42261 14.5617 9.23554 14.808 9.17201C15.1983 9.07183 15.5815 9.10025 15.8777 9.22668L15.8873 9.23084L15.8922 9.23289L15.8992 9.23564L15.9025 9.23662L15.9089 9.23971L15.9122 9.24072L15.9186 9.24381L15.9219 9.24478L15.9283 9.24791L15.9309 9.24929L15.9372 9.25241L15.9399 9.25379L15.9462 9.25688L15.9488 9.25832L15.9552 9.26138L15.9577 9.26279L15.963 9.26555L15.9656 9.26696L15.9709 9.26971L15.9735 9.27112L15.9787 9.27388L15.9813 9.27529L15.9866 9.27804L15.9892 9.27946L15.9944 9.28221L15.997 9.28362L16.0023 9.28638L16.0049 9.28779L16.0101 9.29054L16.0127 9.29195L16.018 9.29471L16.0206 9.29612L16.0258 9.29887L16.0284 9.30025L16.0329 9.30344L16.0355 9.30482L16.04 9.30818L16.0426 9.30956L16.0471 9.31275L16.0498 9.31413L16.0543 9.31749L16.0569 9.3189L16.0614 9.32202L16.064 9.32347L16.0681 9.32589L16.0707 9.3273L16.0752 9.33046L16.0812 9.33469C16.0857 9.33785 16.0909 9.34063 16.0954 9.34379C16.2436 9.44426 16.3536 9.59181 16.4075 9.76254L16.409 9.7654C16.4107 9.7701 16.4118 9.77414 16.4134 9.77884L16.4138 9.77958L16.4162 9.78391C16.4178 9.79046 16.4195 9.79701 16.4215 9.80424C16.4249 9.80498 16.4253 9.81301 16.4242 9.82298L16.4237 9.82262Z" fill="#18153A"/>
</g>
<defs>
<clipPath id="clip0_2042_6002">
<rect width="135.469" height="17" fill="white" transform="translate(0.667969 0.5)"/>
</clipPath>
</defs>
</svg>
