<svg width="100" height="22" viewBox="0 0 100 22" fill="none" xmlns="http://www.w3.org/2000/svg">
<path fill-rule="evenodd" clip-rule="evenodd" d="M20.7903 13.3408C19.4026 18.8793 13.7653 22.25 8.19872 20.8688C2.63443 19.488 -0.752904 13.8781 0.635407 8.3399C2.02242 2.80075 7.65976 -0.570233 13.2247 0.810598C18.7909 2.19143 22.1779 7.80198 20.7903 13.3408Z" fill="#5E647A"/>
<path d="M15.2945 9.36701C15.5013 7.99134 14.4487 7.25182 13.0094 6.75848L13.4763 4.89498L12.3364 4.61228L11.8818 6.42668C11.5822 6.35238 11.2744 6.28227 10.9685 6.21281L11.4263 4.38645L10.287 4.10376L9.81982 5.96662C9.57177 5.91041 9.32826 5.85484 9.0919 5.79636L9.0932 5.79054L7.52112 5.39994L7.21787 6.61148C7.21787 6.61148 8.06365 6.80436 8.04579 6.81631C8.50748 6.93101 8.59092 7.23502 8.57696 7.47604L8.04515 9.59898C8.07696 9.60705 8.1182 9.61868 8.16365 9.63678C8.12567 9.62741 8.08508 9.61707 8.0432 9.60705L7.29774 12.581C7.24125 12.7205 7.09807 12.9299 6.77534 12.8504C6.7867 12.8669 5.94677 12.6446 5.94677 12.6446L5.38086 13.9431L6.8643 14.3111C7.14028 14.3799 7.41073 14.4519 7.67696 14.5198L7.20521 16.4046L8.34385 16.6873L8.81105 14.8225C9.12209 14.9065 9.42404 14.984 9.7195 15.057L9.25391 16.9131L10.3938 17.1958L10.8656 15.3145C12.8094 15.6806 14.2711 15.5329 14.8864 13.7835C15.3822 12.3749 14.8617 11.5623 13.839 11.0325C14.5838 10.8616 15.1448 10.374 15.2945 9.36701ZM12.69 13.0013C12.3377 14.4099 9.95424 13.6484 9.18151 13.4575L9.80748 10.9604C10.5802 11.1523 13.0581 11.5323 12.69 13.0013ZM13.0425 9.34665C12.7211 10.628 10.7374 9.97698 10.0938 9.81738L10.6614 7.55261C11.3049 7.71221 13.3773 8.01008 13.0425 9.34665Z" fill="#23252F"/>
<path d="M30.7717 6.75658C31.6142 6.75658 32.3421 6.90681 32.9538 7.20178C33.5684 7.49966 34.0756 7.90092 34.4824 8.40556C34.8837 8.91279 35.1824 9.50564 35.3752 10.1851C35.5668 10.8664 35.6629 11.5989 35.6629 12.383C35.6629 13.5874 35.4412 14.7253 34.9934 15.7979C34.5457 16.8721 33.9382 17.8039 33.1655 18.5986C32.3934 19.3924 31.4817 20.0182 30.4304 20.4806C29.3808 20.9432 28.2395 21.1745 27.0142 21.1745C26.8558 21.1745 26.5772 21.17 26.1837 21.1619C25.7902 21.1539 25.3379 21.1135 24.8314 21.0453C24.3217 20.9746 23.7827 20.8699 23.2136 20.7297C22.6447 20.592 22.1045 20.3991 21.5957 20.1543L26.1451 1.13278L30.2197 0.504395L28.5908 7.25444C28.9395 7.09807 29.2908 6.97692 29.6415 6.88872C29.9925 6.80181 30.3691 6.75658 30.7717 6.75658ZM27.3538 17.958C27.9675 17.958 28.5457 17.8077 29.0889 17.5128C29.6337 17.2175 30.1038 16.8188 30.4977 16.3222C30.8915 15.8234 31.2032 15.2616 31.4304 14.6338C31.6577 14.0061 31.7727 13.3512 31.7727 12.6699C31.7727 11.8328 31.6321 11.1798 31.3519 10.7078C31.0717 10.2377 30.5532 10.0012 29.8003 10.0012C29.5535 10.0012 29.2356 10.0481 28.8415 10.1318C28.446 10.2206 28.0921 10.4051 27.7749 10.6826L26.0405 17.851C26.1451 17.8695 26.2376 17.8869 26.3165 17.9034C26.3938 17.9211 26.4791 17.9338 26.5642 17.9425C26.6541 17.9525 26.7571 17.9577 26.8814 17.9577C27.0058 17.9577 27.1613 17.958 27.3538 17.958Z" fill="#5E647A"/>
<path d="M39.888 20.8103H35.9961L39.2828 7.04819H43.2013L39.888 20.8103ZM41.7818 5.37142C41.2386 5.37142 40.7461 5.21053 40.3091 4.8881C39.8685 4.56761 39.6503 4.07427 39.6503 3.40938C39.6503 3.04365 39.725 2.70055 39.873 2.37682C40.0234 2.05375 40.2198 1.77558 40.4659 1.53909C40.7117 1.30453 40.9964 1.11715 41.3198 0.975963C41.6451 0.83704 41.9912 0.767578 42.3601 0.767578C42.9029 0.767578 43.3928 0.92847 43.8315 1.2509C44.2685 1.57495 44.4883 2.06829 44.4883 2.72962C44.4883 3.09664 44.4139 3.44104 44.2646 3.76412C44.1162 4.08719 43.9198 4.36536 43.6737 4.60185C43.4299 4.83673 43.1425 5.02347 42.8198 5.16336C42.4941 5.30455 42.1493 5.37142 41.7818 5.37142Z" fill="#5E647A"/>
<path fill-rule="evenodd" clip-rule="evenodd" d="M46.612 3.61935L50.6883 2.99097L49.6873 7.04752H54.0529L53.2645 10.2389H48.9253L47.7694 15.0527C47.6629 15.454 47.6025 15.8288 47.5857 16.177C47.5665 16.5269 47.611 16.8274 47.7162 17.0804C47.8207 17.334 48.0087 17.5294 48.2814 17.6677C48.5529 17.8082 48.9415 17.879 49.4512 17.879C49.871 17.879 50.2801 17.8393 50.6756 17.7604C51.0688 17.6829 51.4671 17.575 51.8704 17.4338L52.1607 20.4177C51.6347 20.6096 51.0652 20.7747 50.4516 20.9137C49.837 21.0545 49.1094 21.1224 48.2685 21.1224C47.0594 21.1224 46.122 20.9437 45.4542 20.588C44.7873 20.2297 44.3159 19.7402 44.0337 19.1206C43.7555 18.5032 43.6311 17.7914 43.6659 16.9896C43.7019 16.1858 43.8236 15.3409 44.0337 14.4512L46.612 3.61935Z" fill="#5E647A"/>
<path fill-rule="evenodd" clip-rule="evenodd" d="M53.8809 15.3149C53.8809 14.1295 54.0737 13.0117 54.4591 11.9652C54.8438 10.9178 55.3981 10.0019 56.1172 9.21583C56.8338 8.43367 57.7068 7.814 58.7344 7.35911C59.7572 6.9068 60.9023 6.67871 62.1643 6.67871C62.9542 6.67871 63.6598 6.75302 64.2805 6.90196C64.9039 7.05219 65.4679 7.24636 65.9779 7.48996L64.6357 10.5269C64.2851 10.3854 63.9211 10.2607 63.5448 10.1476C63.1682 10.0322 62.7085 9.97668 62.1646 9.97668C60.8656 9.97668 59.8387 10.4222 59.0744 11.3103C58.313 12.1991 57.9296 13.3955 57.9296 14.8962C57.9296 15.7856 58.1224 16.5048 58.5094 17.055C58.8945 17.6052 59.6059 17.8788 60.6387 17.8788C61.1484 17.8788 61.6403 17.8258 62.1114 17.7224C62.5861 17.6178 63.0052 17.486 63.3744 17.3302L63.665 20.4434C63.1727 20.6334 62.6299 20.8049 62.0344 20.9552C61.4377 21.1002 60.7273 21.1755 59.9036 21.1755C58.8162 21.1755 57.8958 21.0172 57.1429 20.7054C56.3896 20.3888 55.7672 19.9685 55.277 19.436C54.7841 18.9023 54.4302 18.2791 54.2114 17.5638C53.9925 16.8492 53.8809 16.0983 53.8809 15.3149Z" fill="#5E647A"/>
<path d="M71.1703 21.1755C70.2414 21.1755 69.4346 21.0346 68.7502 20.7558C68.0677 20.477 67.5025 20.0858 67.0554 19.5785C66.6077 19.0739 66.2726 18.4759 66.0431 17.7867C65.8135 17.0979 65.7031 16.3352 65.7031 15.4994C65.7031 14.451 65.8723 13.4029 66.2142 12.3578C66.5544 11.3103 67.0593 10.3692 67.7275 9.53277C68.3905 8.69503 69.2083 8.01011 70.1713 7.47607C71.1333 6.94557 72.2398 6.67871 73.4827 6.67871C74.3947 6.67871 75.1973 6.8199 75.8911 7.09871C76.5817 7.37688 77.1505 7.77136 77.6002 8.276C78.045 8.78323 78.383 9.37866 78.6103 10.0688C78.8392 10.7563 78.9521 11.521 78.9521 12.3574C78.9521 13.4026 78.7853 14.4506 78.4541 15.499C78.1226 16.5422 77.6307 17.4856 76.9814 18.324C76.3333 19.1605 75.5229 19.8451 74.5496 20.3768C73.5775 20.9086 72.4502 21.1755 71.1703 21.1755ZM73.1155 9.977C72.5385 9.977 72.0284 10.1437 71.5918 10.4729C71.1534 10.806 70.7853 11.2247 70.4885 11.7297C70.1885 12.2369 69.9661 12.79 69.8158 13.3913C69.6668 13.9938 69.5937 14.5634 69.5937 15.1046C69.5937 15.9778 69.7353 16.6579 70.0135 17.1474C70.2957 17.6342 70.8025 17.8791 71.5392 17.8791C72.1181 17.8791 72.6255 17.7137 73.0648 17.381C73.5005 17.0504 73.869 16.6314 74.1681 16.1255C74.4661 15.6208 74.6905 15.0661 74.8408 14.4639C74.9879 13.8633 75.0629 13.2905 75.0629 12.7503C75.0629 11.8793 74.922 11.1976 74.6411 10.7088C74.3606 10.2219 73.8515 9.977 73.1155 9.977Z" fill="#5E647A"/>
<path d="M83.192 20.8103H79.2969L82.5836 7.04819H86.504L83.192 20.8103ZM85.0829 5.37142C84.5401 5.37142 84.0479 5.21053 83.6115 4.8881C83.1732 4.56761 82.953 4.07427 82.953 3.40938C82.953 3.04365 83.0287 2.70055 83.1771 2.37682C83.3254 2.05375 83.5232 1.77558 83.7693 1.53909C84.0138 1.30453 84.3011 1.11715 84.6238 0.975963C84.9472 0.83704 85.2933 0.767578 85.6608 0.767578C86.205 0.767578 86.6966 0.92847 87.1342 1.2509C87.5722 1.57495 87.7933 2.06829 87.7933 2.72962C87.7933 3.09664 87.7147 3.44104 87.5677 3.76412C87.4206 4.08719 87.2229 4.36536 86.9777 4.60185C86.731 4.83673 86.4472 5.02347 86.1238 5.16336C85.7979 5.30455 85.4524 5.37142 85.0829 5.37142Z" fill="#5E647A"/>
<path fill-rule="evenodd" clip-rule="evenodd" d="M89.3104 7.67402C89.6058 7.58808 89.9357 7.4847 90.2945 7.37226C90.6546 7.25983 91.0568 7.15516 91.5062 7.06082C91.9507 6.96357 92.4523 6.88474 93.0039 6.82368C93.5555 6.76133 94.1841 6.73096 94.8825 6.73096C96.9351 6.73096 98.35 7.32574 99.1312 8.51176C99.9117 9.69777 100.047 11.3209 99.5403 13.3783L97.75 20.809H93.8325L95.5675 13.5346C95.6734 13.0804 95.7565 12.6413 95.8179 12.2123C95.8799 11.7871 95.8763 11.4123 95.8039 11.088C95.7347 10.7675 95.5718 10.5051 95.3188 10.3019C95.062 10.1019 94.674 10.0015 94.1477 10.0015C93.6403 10.0015 93.124 10.0557 92.5971 10.1604L90.0461 20.8087H86.127L89.3104 7.67402Z" fill="#5E647A"/>
</svg>
