<svg width="105" height="32" viewBox="0 0 105 32" fill="none" xmlns="http://www.w3.org/2000/svg">
<path d="M35.7869 15.8086C35.6653 12.6816 38.1148 10.0584 41.2418 9.93677H41.4677C44.3515 9.93677 46.054 11.6219 46.5578 13.6023L44.7511 14.2104C44.421 12.6816 43.0138 11.6219 41.4677 11.7435C39.6088 11.7435 37.7326 13.0985 37.7326 15.8434C37.7326 18.5882 39.5567 19.8912 41.4851 19.8912C43.0486 19.9259 44.4384 18.9009 44.8553 17.4069L46.6099 17.9802C45.9845 20.2734 43.8477 21.8369 41.4677 21.7153C38.3754 21.7674 35.8216 19.3179 35.7695 16.2256C35.7695 16.0866 35.7695 15.9476 35.7869 15.8086Z" fill="#5E647A"/>
<path d="M50.1202 21.455H48.2266V9.90234H50.1202V14.4365C50.6587 13.7938 51.4752 13.4289 52.3265 13.4637C54.2374 13.4637 55.1755 14.8361 55.1755 16.5386V21.455H53.3341V16.8513C53.4557 16.0348 52.8824 15.2704 52.0659 15.1488C51.9616 15.1314 51.84 15.1314 51.7358 15.1488C50.8498 15.1488 50.1202 15.8785 50.1202 16.7644C50.1202 16.8166 50.1202 16.8513 50.1202 16.9034V21.455Z" fill="#5E647A"/>
<path d="M59.2752 17.0077L61.273 16.695C61.7247 16.6429 61.8463 16.3996 61.8463 16.139C61.8463 15.4789 61.412 14.9577 60.3696 14.9577C59.5705 14.8882 58.8582 15.4789 58.7714 16.278V16.3475L57.0863 15.9653C57.2252 14.6276 58.4413 13.429 60.3523 13.429C62.7497 13.429 63.653 14.784 63.653 16.3649V20.2216C63.653 20.6385 63.6704 21.0554 63.7573 21.4724H62.0374C61.9679 21.1423 61.9505 20.8122 61.9679 20.4822C61.4467 21.2813 60.526 21.7503 59.5705 21.7156C58.2328 21.8198 57.0689 20.847 56.9299 19.5093V19.3877C56.9125 17.9458 57.9375 17.1988 59.2752 17.0077ZM61.8289 18.2585V17.911L59.7964 18.2064C59.2231 18.2237 58.7714 18.6928 58.754 19.2661C58.754 19.8394 59.2231 20.2911 59.7964 20.2737H59.8832C60.8561 20.3953 61.7421 19.683 61.8463 18.7102C61.8463 18.6928 61.8463 18.6928 61.8463 18.6754C61.881 18.5364 61.8637 18.3975 61.8289 18.2585Z" fill="#5E647A"/>
<path d="M66.797 9.74609C67.4571 9.74609 68.013 10.2673 68.0304 10.9448C68.0304 11.6049 67.4919 12.1435 66.8317 12.1609C66.1716 12.1609 65.633 11.6223 65.6156 10.9622C65.5983 10.2846 66.1368 9.74609 66.797 9.74609ZM65.8936 21.4899V13.6896H67.7525V21.4551L65.8936 21.4899Z" fill="#5E647A"/>
<path d="M71.9565 21.4547H70.0977V13.6892H71.9044V14.7315C72.3908 13.9324 73.2594 13.446 74.1975 13.4633C76.0911 13.4633 76.9945 14.8358 76.9945 16.5383V21.4547H75.153V16.851C75.153 15.8955 74.7187 15.1311 73.5548 15.1311C72.6514 15.1311 71.9218 15.8781 71.9218 16.7815C71.9218 16.851 71.9218 16.9031 71.9218 16.9726L71.9565 21.4547Z" fill="#5E647A"/>
<path d="M81.111 9.90234H79.2695V21.455H81.111V9.90234Z" fill="#5E647A"/>
<path d="M84.4292 9.74609C85.0893 9.74609 85.6279 10.2846 85.6452 10.9448C85.6452 11.6049 85.1067 12.1435 84.4465 12.1609C83.7864 12.1609 83.2478 11.6223 83.2305 10.9622V10.9448C83.2305 10.2846 83.7516 9.74609 84.4292 9.74609ZM83.5084 21.4899V13.6896H85.3499V21.4551L83.5084 21.4899Z" fill="#5E647A"/>
<path d="M89.5895 21.4547H87.748V13.6892H89.5548V14.7315C90.0412 13.9324 90.9098 13.446 91.8479 13.4633C93.7415 13.4633 94.6623 14.8358 94.6623 16.5383V21.4547H92.8208V16.851C92.9424 16.0345 92.3691 15.2701 91.5526 15.1485C91.4484 15.1311 91.3268 15.1311 91.2225 15.1485C90.3192 15.1485 89.5895 15.8781 89.6069 16.7815C89.6069 16.851 89.6069 16.9205 89.6069 16.9726L89.5895 21.4547Z" fill="#5E647A"/>
<path d="M100.969 16.9555L104.235 21.455H101.959L99.6837 18.2411L98.7282 19.2487V21.455H96.8867V9.90234H98.7282V16.8166L101.716 13.6895H104.166L100.969 16.9555Z" fill="#5E647A"/>
<path d="M13.8632 6.77524L21.8719 11.3789V20.6037L13.8979 25.2248L5.88925 20.6732V11.4137L13.8632 6.77524ZM13.8632 0L10.9273 1.7025L2.93594 6.34093L0 8.04343V24.0434L2.93594 25.7286L10.9446 30.3149L13.8806 32L16.8165 30.2975L24.7904 25.6591L27.7264 23.9566V7.9392L24.7904 6.25407L16.7818 1.65038L13.8632 0Z" fill="#5E647A"/>
</svg>
