<svg width="114" height="24" viewBox="0 0 114 24" fill="none" xmlns="http://www.w3.org/2000/svg">
<g clip-path="url(#clip0_2042_5937)">
<path d="M12.048 0.0625C5.55687 0.0625 0.294922 5.32452 0.294922 11.8156C0.294922 18.3067 5.55687 23.5688 12.048 23.5688C18.539 23.5688 23.801 18.3067 23.801 11.8156C23.801 5.32452 18.5389 0.0625 12.048 0.0625ZM10.2335 5.51256H13.8688L12.5869 10.3392L14.366 9.68927L14.3813 9.7311L13.9318 11.4205L12.1244 12.0808L11.3611 14.9553H17.4008L16.7806 17.2658H7.10547L8.09353 13.5535L6.69497 14.0644L7.15748 12.3227L8.55702 11.8114L10.2335 5.51256Z" fill="#5E647A"/>
<path fill-rule="evenodd" clip-rule="evenodd" d="M30.5121 22.523H29.0352V1.47681H30.5121V22.523ZM36.4198 22.523H34.9428V7.3845H36.4198V22.523ZM34.9428 2.96061C34.9428 2.64871 35.0413 2.38498 35.2382 2.1694C35.4352 1.95382 35.7037 1.84604 36.0438 1.84604C36.384 1.84604 36.6547 1.95382 36.8561 2.1694C37.0575 2.38498 37.1582 2.64871 37.1582 2.96061C37.1582 3.27251 37.0575 3.53395 36.8561 3.74494C36.6547 3.95593 36.384 4.06142 36.0438 4.06142C35.7037 4.06142 35.4352 3.95593 35.2382 3.74494C35.0413 3.53395 34.9428 3.27251 34.9428 2.96061ZM43.9844 3.69219V7.47473H47.2221V8.81296H43.9844V18.6585C43.9844 19.4778 44.141 20.0877 44.4542 20.4883C44.7673 20.8889 45.2901 21.0891 46.0224 21.0891C46.3115 21.0891 46.7788 21.0436 47.4244 20.9526L47.4967 22.2908C47.0438 22.4456 46.4271 22.523 45.6466 22.523C44.4614 22.523 43.599 22.1975 43.0594 21.5466C42.5197 20.8957 42.2499 19.9375 42.2499 18.6721V8.81296H39.3736V7.47473H42.2499V3.69219H43.9844ZM56.1763 22.523C54.8801 22.523 53.7083 22.2097 52.661 21.5831C51.6136 20.9565 50.7988 20.0835 50.2164 18.9639C49.634 17.8444 49.3428 16.5889 49.3428 15.1976V14.6033C49.3428 13.1658 49.627 11.8712 50.1953 10.7194C50.7636 9.56763 51.5549 8.66233 52.5694 8.0035C53.5838 7.34468 54.6828 7.01527 55.8663 7.01527C57.7168 7.01527 59.1844 7.63492 60.2693 8.87426C61.3542 10.1136 61.8967 11.8067 61.8967 13.9536V14.8797H51.0195V15.1976C51.0195 16.893 51.515 18.3051 52.506 19.4339C53.4969 20.5626 54.7439 21.127 56.2468 21.127C57.1485 21.127 57.9446 20.9657 58.635 20.6432C59.3253 20.3207 59.9523 19.8047 60.5159 19.0952L61.5726 19.8831C60.3327 21.643 58.534 22.523 56.1763 22.523ZM56.0248 8.49219C54.7448 8.49219 53.6662 8.92616 52.7891 9.79411C51.912 10.6621 51.3786 11.8281 51.189 13.2922H60.4198V13.1212C60.3724 11.7536 59.9504 10.6401 59.1539 9.78096C58.3574 8.92178 57.3144 8.49219 56.0248 8.49219ZM70.7179 21.127C71.9094 21.127 72.9079 20.8022 73.7133 20.1526C74.5188 19.503 74.9549 18.6622 75.0216 17.6302H76.6659C76.6183 18.5424 76.3228 19.374 75.7794 20.1249C75.2361 20.8759 74.514 21.4633 73.6133 21.8872C72.7125 22.311 71.7473 22.523 70.7179 22.523C68.6875 22.523 67.079 21.8411 65.8922 20.4774C64.7054 19.1137 64.1121 17.28 64.1121 14.9764V14.4789C64.1121 13.0046 64.379 11.7008 64.9128 10.5674C65.4466 9.43402 66.2115 8.55867 67.2076 7.94131C68.2038 7.32395 69.3691 7.01527 70.7036 7.01527C72.4003 7.01527 73.7991 7.50362 74.9001 8.48034C76.0011 9.45707 76.5897 10.7425 76.6659 12.3365H75.0216C74.9454 11.1663 74.5093 10.2219 73.7133 9.50313C72.9174 8.78441 71.9142 8.42506 70.7036 8.42506C69.1593 8.42506 67.9607 8.96409 67.1076 10.0422C66.2544 11.1203 65.8279 12.6314 65.8279 14.5756V15.0594C65.8279 16.9667 66.2544 18.4548 67.1076 19.5237C67.9607 20.5926 69.1641 21.127 70.7179 21.127ZM79.2505 14.548C79.2505 13.1105 79.5357 11.8159 80.1062 10.6641C80.6766 9.51234 81.4827 8.61626 82.5245 7.97586C83.5663 7.33546 84.7472 7.01527 86.0672 7.01527C88.1037 7.01527 89.7536 7.71325 91.017 9.10922C92.2804 10.5052 92.9121 12.355 92.9121 14.6585V15.0041C92.9121 16.4507 92.6269 17.7522 92.0565 18.9086C91.4861 20.065 90.6823 20.9565 89.6452 21.5831C88.6081 22.2097 87.4248 22.523 86.0955 22.523C84.0684 22.523 82.4208 21.825 81.1527 20.429C79.8846 19.033 79.2505 17.1833 79.2505 14.8797V14.548ZM80.7275 14.9945C80.7275 16.7613 81.2039 18.2115 82.1566 19.3453C83.1094 20.4791 84.3585 21.046 85.9038 21.046C87.4397 21.046 88.684 20.4791 89.6367 19.3453C90.5895 18.2115 91.0659 16.7157 91.0659 14.8579V14.5437C91.0659 13.4145 90.8479 12.3808 90.4118 11.4428C89.9757 10.5048 89.3642 9.77854 88.5773 9.264C87.7904 8.74946 86.8898 8.49219 85.8754 8.49219C84.3585 8.49219 83.1213 9.06364 82.1638 10.2066C81.2062 11.3495 80.7275 12.8453 80.7275 14.694V14.9945ZM98.0813 22.523H96.6044V7.3845H98.0813V22.523ZM95.8659 2.96061C95.8659 2.64871 95.9644 2.38498 96.1613 2.1694C96.3582 1.95382 96.6268 1.84604 96.9669 1.84604C97.307 1.84604 97.5778 1.95382 97.7792 2.1694C97.9806 2.38498 98.0813 2.64871 98.0813 2.96061C98.0813 3.27251 97.9806 3.53395 97.7792 3.74494C97.5778 3.95593 97.307 4.06142 96.9669 4.06142C96.6268 4.06142 96.3582 3.95593 96.1613 3.74494C95.9644 3.53395 95.8659 3.27251 95.8659 2.96061ZM104.111 7.65924L104.167 10.2006C104.738 9.28482 105.448 8.58651 106.299 8.10571C107.15 7.6249 108.09 7.3845 109.119 7.3845C110.746 7.3845 111.957 7.83324 112.752 8.73075C113.547 9.62826 113.949 10.9745 113.958 12.7695V22.523H112.289V12.7558C112.28 11.4278 111.992 10.4388 111.426 9.78852C110.861 9.13829 109.956 8.81317 108.712 8.81317C107.674 8.81317 106.755 9.13142 105.956 9.76791C105.156 10.4044 104.565 11.263 104.181 12.3436V22.523H102.512V7.65924H104.111Z" fill="#5E647A"/>
</g>
<defs>
<clipPath id="clip0_2042_5937">
<rect width="113.723" height="24" fill="white" transform="translate(0.234375)"/>
</clipPath>
</defs>
</svg>
