<svg width="140" height="24" viewBox="0 0 140 24" fill="none" xmlns="http://www.w3.org/2000/svg">
<path d="M13.4319 17.2026C13.4319 17.5074 13.1767 17.7555 12.8719 17.7555H2.08402C2.35336 20.4205 4.35926 22.8517 7.18027 22.8517C9.1082 22.8517 10.54 22.1146 11.6173 20.5765C11.7733 20.3638 12.0072 20.2292 12.3049 20.3568C12.4679 20.4276 12.5813 20.5765 12.6097 20.7466C12.638 20.9238 12.5884 21.023 12.5388 21.1223C11.4543 23.0148 9.29249 23.9433 7.17318 23.9433C3.54414 23.9433 0.957031 20.697 0.957031 17.2239C0.957031 13.7507 3.54414 10.5044 7.17318 10.5044C10.8022 10.4973 13.4248 13.7366 13.4319 17.2026ZM12.2765 16.6781C12.0426 14.013 10.0013 11.5818 7.18027 11.5818C4.35926 11.5818 2.35336 14.013 2.08402 16.6781H12.2765ZM26.5234 10.7667C26.8352 10.7667 27.062 11.036 27.062 11.3054C27.062 11.6172 26.8281 11.8441 26.5234 11.8441H23.6315V23.192C23.6315 23.4613 23.3976 23.7307 23.0928 23.7307C22.7809 23.7307 22.5541 23.4613 22.5541 23.192V11.8441H19.7756C19.4637 11.8441 19.2369 11.6102 19.2369 11.3054C19.2369 11.036 19.4708 10.7667 19.7756 10.7667H22.5541V6.61311C22.5541 6.35085 22.7313 6.10987 22.9865 6.06734C23.3479 6.01063 23.6315 6.25871 23.6315 6.59894V10.7667H26.5234ZM44.1653 16.2528V23.1282C44.1653 23.44 43.896 23.6669 43.6266 23.6669C43.3148 23.6669 43.088 23.433 43.088 23.1282V16.2528C43.088 13.935 41.7767 11.6172 39.1896 11.6172C35.8724 11.6172 34.4406 14.5162 34.632 17.4861C34.632 17.5641 34.6674 17.9114 34.6674 17.9468V23.1069C34.6674 23.3692 34.4902 23.6102 34.2351 23.6527C33.8736 23.7094 33.5901 23.4613 33.5901 23.1211V0.538687C33.5901 0.269343 33.824 0 34.1288 0C34.4406 0 34.6674 0.269343 34.6674 0.538687V13.3184C35.596 11.6598 37.2546 10.5399 39.1825 10.5399C42.3508 10.5399 44.1653 13.3184 44.1653 16.2528ZM63.5084 17.2026C63.5084 17.5074 63.2532 17.7555 62.9485 17.7555H52.1535C52.4228 20.4205 54.4287 22.8517 57.2497 22.8517C59.1777 22.8517 60.6094 22.1146 61.6868 20.5765C61.8427 20.3638 62.0766 20.2292 62.3743 20.3568C62.5374 20.4276 62.6508 20.5765 62.6791 20.7466C62.7075 20.9238 62.6579 21.023 62.6082 21.1223C61.5238 23.0148 59.3619 23.9433 57.2426 23.9433C53.6136 23.9433 51.0265 20.697 51.0265 17.2239C51.0265 13.7507 53.6136 10.5044 57.2426 10.5044C60.8788 10.4973 63.5013 13.7366 63.5084 17.2026ZM62.346 16.6781C62.1121 14.013 60.0707 11.5818 57.2497 11.5818C54.4287 11.5818 52.4228 14.013 52.1535 16.6781H62.346ZM76.7487 11.2699C76.7487 11.6172 76.5574 11.8086 76.2455 11.8512C73.0772 12.3119 71.6525 14.899 71.6525 17.9114V23.0715C71.6525 23.3337 71.4753 23.5747 71.2201 23.6172C70.8586 23.674 70.5751 23.4259 70.5751 23.0856V11.3266C70.5751 11.0644 70.7523 10.8234 71.0075 10.7809C71.369 10.7242 71.6525 10.9722 71.6525 11.3125V13.7082C72.5385 12.2055 74.3176 10.7738 76.1675 10.7738C76.4369 10.7667 76.7487 10.9651 76.7487 11.2699ZM94.4687 17.2026C94.4687 17.5074 94.2135 17.7555 93.9087 17.7555H83.1208C83.3902 20.4205 85.3961 22.8517 88.2171 22.8517C90.145 22.8517 91.5768 22.1146 92.6542 20.5765C92.8101 20.3638 93.044 20.2292 93.3417 20.3568C93.5047 20.4276 93.6181 20.5765 93.6465 20.7466C93.6748 20.9238 93.6252 21.023 93.5756 21.1223C92.4911 23.0148 90.3293 23.9433 88.21 23.9433C84.581 23.9433 81.9938 20.697 81.9938 17.2239C81.9938 13.7507 84.581 10.5044 88.21 10.5044C91.8391 10.4973 94.4616 13.7366 94.4687 17.2026ZM93.3133 16.6781C93.0794 14.013 91.0381 11.5818 88.2171 11.5818C85.3961 11.5818 83.3902 14.013 83.1208 16.6781H93.3133ZM111.884 11.4046V23.192C111.884 23.5038 111.615 23.7307 111.345 23.7307C111.033 23.7307 110.806 23.4967 110.806 23.192V20.9522C109.92 22.7312 108.333 24 106.327 24C103.123 24 101.344 21.2215 101.344 18.2871V11.3762C101.344 11.1069 101.578 10.8376 101.883 10.8376C102.195 10.8376 102.421 11.1069 102.421 11.3762V18.2871C102.421 20.6048 103.733 22.9226 106.32 22.9226C109.949 22.9226 110.799 19.5275 110.799 15.7779V11.3762C110.799 11.0644 111.111 10.7454 111.494 10.8588C111.728 10.9368 111.884 11.1636 111.884 11.4046ZM139.173 16.2103V23.1211C139.173 23.433 138.903 23.6598 138.634 23.6598C138.322 23.6598 138.095 23.4259 138.095 23.1211V16.2103C138.095 13.8925 136.784 11.6172 134.197 11.6172C130.95 11.6172 129.717 15.0904 129.717 17.7909V23.1211C129.717 23.433 129.448 23.6598 129.178 23.6598C128.867 23.6598 128.64 23.4259 128.64 23.1211V16.2103C128.64 13.8925 127.329 11.6172 124.741 11.6172C121.46 11.6172 120.106 14.2044 120.226 17.642C120.226 17.72 120.262 17.876 120.226 17.9114V23.1069C120.226 23.3692 120.049 23.6102 119.787 23.6527C119.425 23.7094 119.142 23.4613 119.142 23.1211V11.3266C119.142 11.0644 119.319 10.8234 119.574 10.7809C119.936 10.7242 120.219 10.9722 120.219 11.3125V13.2829C121.148 11.6243 122.806 10.5399 124.734 10.5399C126.932 10.5399 128.633 11.9291 129.327 13.9776C130.213 11.9716 131.95 10.5399 134.19 10.5399C137.358 10.5399 139.173 13.2758 139.173 16.2103Z" fill="#5E647A"/>
</svg>
