<svg width="71" height="24" viewBox="0 0 71 24" fill="none" xmlns="http://www.w3.org/2000/svg">
<path d="M5.40336 12.1537C3.15721 6.4922 1.40336 1.75374 1.49567 1.63066C1.61875 1.53835 5.28029 2.0922 9.61875 2.86143L17.5572 4.30758L19.6187 6.36912L21.6495 8.46143L15.9264 15.446C12.7572 19.2922 10.0187 22.4307 9.83413 22.4307C9.64952 22.4614 7.68029 17.8153 5.40336 12.1537ZM10.2034 14.2153C10.4803 11.9691 10.6649 10.0922 10.6034 10.0307C10.5418 9.99989 9.31106 8.98451 7.8649 7.81527C3.77259 4.46143 4.04952 4.61527 4.54182 5.84604C4.78798 6.43066 6.01875 9.50758 7.28029 12.6768C8.54182 15.8153 9.58798 18.3691 9.61875 18.3384C9.64952 18.3076 9.92644 16.4614 10.2034 14.2153ZM15.0341 13.9999C17.0034 11.6307 18.5418 9.66143 18.5111 9.59989C18.4187 9.50758 12.4187 10.523 12.2341 10.646C12.0803 10.7384 11.2803 16.8307 11.2495 17.8153C11.2495 18.2153 11.3111 18.4922 11.3726 18.4307C11.4341 18.3691 13.0957 16.3691 15.0341 13.9999ZM16.8803 8.30758L19.0034 7.90758L18.0803 6.98451C17.0341 5.93835 16.9418 5.96912 14.6341 7.99989C13.8341 8.70758 13.7111 8.92297 14.1726 8.79989C14.5111 8.73835 15.7418 8.4922 16.8803 8.30758ZM13.4341 7.01527C14.4803 6.12297 15.2187 5.38451 15.0649 5.32297C14.0495 5.07681 5.89567 3.6922 5.71106 3.75374C5.4649 3.84604 10.9111 8.55374 11.3111 8.58451C11.4034 8.61527 12.3572 7.90758 13.4341 7.01527Z" fill="#5E647A"/>
<path d="M65.8352 13.8459L62.1737 9.53826L62.0814 13.3844C62.0198 16.9844 61.9583 17.2306 61.4044 17.2306C60.8198 17.2306 60.7891 16.9844 60.7891 11.5383C60.7891 8.39979 60.8506 5.84595 60.9121 5.84595C61.0044 5.84595 62.6968 7.72287 64.6968 10.0306L68.3275 14.2152L68.4198 10.4921C68.4814 7.01518 68.5429 6.76902 69.0968 6.76902C69.6814 6.76902 69.7121 7.01518 69.7121 12.4613C69.7121 15.5998 69.6814 18.1536 69.6198 18.1536C69.5583 18.1536 67.866 16.2152 65.8352 13.8459Z" fill="#5E647A"/>
<path d="M28.1738 13.5383C28.1738 10.0613 28.2046 9.84595 28.7892 9.84595C29.3738 9.84595 29.4046 10.0613 29.4046 13.5383C29.4046 17.0152 29.3738 17.2306 28.7892 17.2306C28.2046 17.2306 28.1738 17.0152 28.1738 13.5383Z" fill="#5E647A"/>
<path d="M30.0195 13.5383C30.0195 10.0613 30.0503 9.84595 30.6349 9.84595C31.2195 9.84595 31.2503 10.0613 31.2503 13.5383C31.2503 17.0152 31.2195 17.2306 30.6349 17.2306C30.0503 17.2306 30.0195 17.0152 30.0195 13.5383Z" fill="#5E647A"/>
<path d="M36.4805 11.9998V6.76904H40.0497C41.9882 6.76904 43.8651 6.92289 44.2035 7.07674C44.5112 7.26135 45.0035 7.8152 45.2497 8.3075C45.9882 9.72289 45.8343 10.9229 44.7882 12.1229L43.8343 13.1998L44.7882 15.046C45.2805 16.0614 45.7112 16.9844 45.7112 17.0767C45.7112 17.169 45.4035 17.2306 45.0343 17.2306C44.4805 17.2306 44.0805 16.769 43.2497 15.2306C42.2343 13.3229 42.1112 13.2306 41.0343 13.2306H39.8651V15.2306C39.8651 17.0152 39.8035 17.2306 39.2497 17.2306C38.6959 17.2306 38.6343 17.0152 38.6343 14.646V12.0921L40.9728 11.9383C43.3728 11.7844 43.9266 11.4767 44.3266 10.246C44.4497 9.72289 44.2959 9.35366 43.742 8.76904C43.0343 8.06135 42.7266 7.99981 40.3266 7.99981H37.7112V12.6152C37.7112 17.0152 37.6805 17.2306 37.0959 17.2306C36.5112 17.2306 36.4805 17.0152 36.4805 11.9998Z" fill="#5E647A"/>
<path d="M51.4033 16.769C48.2033 15.6306 46.9418 11.7229 48.8803 8.92289C49.8033 7.53827 51.3726 6.76904 53.2803 6.76904C57.0956 6.76904 59.4956 10.7998 57.8033 14.369C56.8187 16.4921 53.8033 17.6306 51.4033 16.769ZM55.711 14.769C57.4033 13.169 57.4649 10.7383 55.8341 9.19981C53.3726 6.89212 49.3726 8.52289 49.4033 11.7844C49.4341 13.3537 49.9264 14.3075 51.1264 15.1075C52.3264 15.9383 54.6649 15.7537 55.711 14.769Z" fill="#5E647A"/>
<path d="M52.4805 11.8769C52.4805 11.2308 52.6343 11.0769 53.2805 11.0769C53.9266 11.0769 54.0497 11.2 53.9574 11.7846C53.8959 12.2154 53.6189 12.4923 53.1882 12.5538C52.6035 12.6461 52.4805 12.5231 52.4805 11.8769Z" fill="#5E647A"/>
<path d="M62.6348 15.0767C62.6348 13.1382 62.6963 12.9229 63.2501 12.9229C63.804 12.9229 63.8655 13.1382 63.8655 15.0767C63.8655 17.0152 63.804 17.2305 63.2501 17.2305C62.6963 17.2305 62.6348 17.0152 62.6348 15.0767Z" fill="#5E647A"/>
<path d="M25.0957 7.38443C25.0957 6.79981 25.3111 6.76904 29.7111 6.76904C34.1111 6.76904 34.3265 6.79981 34.3265 7.38443C34.3265 7.96904 34.1111 7.99981 29.7111 7.99981C25.3111 7.99981 25.0957 7.96904 25.0957 7.38443Z" fill="#5E647A"/>
</svg>
