<svg width="90" height="24" viewBox="0 0 90 24" fill="none" xmlns="http://www.w3.org/2000/svg">
<path d="M12.9414 24C19.5688 24 24.9414 18.6274 24.9414 12C24.9414 5.37258 19.5688 0 12.9414 0C6.31399 0 0.941406 5.37258 0.941406 12C0.941406 18.6274 6.31399 24 12.9414 24Z" fill="#5E647A"/>
<path d="M14.2198 13.1074V13.1055C14.1368 13.1113 13.7085 13.1363 12.7555 13.1363C11.9934 13.1363 11.459 13.1151 11.27 13.1055V13.1074C8.33942 12.9781 6.15357 12.4688 6.15357 11.8572C6.15357 11.2476 8.34135 10.7363 11.27 10.6071V12.6C11.461 12.6135 12.0108 12.6463 12.769 12.6463C13.6796 12.6463 14.1349 12.6077 14.2198 12.6V10.609C17.1446 10.7402 19.3246 11.2495 19.3246 11.8592C19.3246 12.4688 17.1426 12.9781 14.2198 13.1093V13.1074ZM14.2198 10.4026V8.61994H18.3002V5.90161H7.19151V8.61994H11.2719V10.4026C7.95549 10.555 5.46289 11.2109 5.46289 11.9981C5.46289 12.7852 7.95742 13.4412 11.2719 13.5955V19.31H14.2217V13.5955C17.5323 13.4431 20.0211 12.7871 20.0211 12C20.0211 11.2148 17.5323 10.5569 14.2217 10.4045" fill="#23252F"/>
<path d="M35.135 6.64433V9.52664H37.9363V11.6893H35.1157V16.0746C35.1157 17.043 35.6501 17.5157 36.4334 17.5157C36.825 17.5157 37.2784 17.3922 37.6488 17.207L38.3491 19.3485C37.6295 19.636 37.0314 19.7594 36.2694 19.7807C34.0662 19.8636 32.625 18.6077 32.625 16.0746V11.6893H30.7305V9.52664H32.625V6.9125L35.135 6.64433ZM83.4302 9.39159L83.6154 10.5646C84.3986 9.30864 85.4482 9.12343 86.4784 9.12343C87.5279 9.12343 88.5369 9.53436 89.0925 10.09L87.9601 12.272C87.4449 11.8398 86.9723 11.6122 86.1485 11.6122C84.8308 11.6122 83.6154 12.3125 83.6154 14.1858V19.5395H81.1035V9.38774L83.4302 9.39159ZM77.2739 13.2829C77.1099 11.9652 76.0797 11.3054 74.6385 11.3054C73.2803 11.3054 72.1671 11.9652 71.7967 13.2829H77.2739ZM71.7562 15.3627C71.9202 16.6186 73.0121 17.5254 74.7832 17.5254C75.7093 17.5254 76.9247 17.1742 77.5015 16.5781L79.1067 18.1639C78.0359 19.2752 76.2861 19.8115 74.7408 19.8115C71.2411 19.8115 69.1594 17.6488 69.1594 14.3961C69.1594 11.3074 71.2604 9.08291 74.5556 9.08291C77.953 9.08291 80.0752 11.1839 79.6835 15.3627H71.7562ZM60.6784 5.12793V10.7691C61.5851 9.5961 62.6964 9.24497 63.8501 9.24497C66.7324 9.24497 68.0096 11.2012 68.0096 14.1877V19.5414H65.4977V14.209C65.4977 12.3549 64.5292 11.5736 63.1903 11.5736C61.7067 11.5736 60.6784 12.8295 60.6784 14.3537V19.5434H58.1665V5.12986L60.6784 5.12793ZM54.007 6.52857V9.41089H56.8083V11.5736H53.9877V15.9588C53.9877 16.9273 54.524 17.4 55.3054 17.4C55.697 17.4 56.1504 17.2765 56.5208 17.0913L57.2211 19.2328C56.5015 19.5202 55.9035 19.6437 55.1414 19.6649C52.9382 19.7479 51.497 18.49 51.497 15.9588V11.5736H49.6025V9.41089H51.497V6.79674L54.007 6.52857ZM47.0674 13.2829C46.9035 11.9652 45.8732 11.3054 44.4321 11.3054C43.0739 11.3054 41.9607 11.9652 41.5903 13.2829H47.0674ZM41.5498 15.3627C41.7137 16.6186 42.8057 17.5254 44.5768 17.5254C45.5028 17.5254 46.7183 17.1742 47.2951 16.5781L48.9002 18.1639C47.8295 19.2752 46.0797 19.8115 44.5343 19.8115C41.0327 19.8115 38.953 17.6488 38.953 14.3961C38.953 11.3074 41.0539 9.08291 44.3472 9.08291C47.7446 9.08291 49.8649 11.1839 49.4752 15.3627H41.5498Z" fill="#5E647A"/>
</svg>
