<svg width="63" height="24" viewBox="0 0 63 24" fill="none" xmlns="http://www.w3.org/2000/svg">
<path d="M34.0534 7.56011C34.8934 8.30011 35.3134 9.40011 35.3134 10.8201V18.2001H33.4734V11.4601C33.4734 10.2601 33.2134 9.38011 32.6934 8.84011C32.1734 8.30011 31.4934 8.04011 30.6334 8.04011C30.0305 8.03925 29.4353 8.17606 28.8934 8.44011C28.3327 8.74011 27.8734 9.19942 27.5734 9.76011C27.2134 10.3601 27.0534 11.1401 27.0534 12.0601V18.2001H25.1934V7.00011L26.8934 7.70011L26.9334 8.46011C27.2854 7.7867 27.847 7.24615 28.5334 6.92011C29.2428 6.57444 30.0244 6.40303 30.8134 6.42011C32.12 6.42011 33.2 6.80011 34.0534 7.56011Z" fill="#5E647A"/>
<path d="M48.4536 13.1201H39.7536C39.8536 14.3001 40.2536 15.2001 40.9136 15.8401C41.5736 16.4801 42.4536 16.8201 43.5136 16.8201C44.2449 16.8404 44.9708 16.6897 45.6336 16.3801C46.1643 16.1162 46.5727 15.6577 46.7736 15.1001L48.3136 15.9201C47.8942 16.7058 47.2547 17.3522 46.4736 17.7801C45.7136 18.2201 44.7136 18.4401 43.5136 18.4401C41.7736 18.4401 40.4136 17.9001 39.4136 16.8401C38.4136 15.7801 37.9336 14.3001 37.9336 12.4201C37.9336 10.5401 38.3936 9.08009 39.3536 8.02009C40.3136 6.96009 41.6336 6.42009 43.3736 6.42009C44.3559 6.39385 45.3258 6.64327 46.1736 7.14009C46.9425 7.60042 47.561 8.27447 47.9536 9.08009C48.361 9.93536 48.5662 10.8728 48.5536 11.8201C48.5501 12.2552 48.5167 12.6896 48.4536 13.1201ZM40.9136 8.94009C40.2936 9.54009 39.9136 10.3801 39.7736 11.4801H46.7736C46.6536 10.4001 46.2936 9.56009 45.7136 8.96009C45.1336 8.36009 44.3536 8.04009 43.3736 8.04009C42.3936 8.04009 41.5336 8.34009 40.9136 8.94009Z" fill="#5E647A"/>
<path d="M60.7737 8.01992C61.7737 9.07992 62.2737 10.5399 62.2737 12.4199C62.2737 14.2999 61.7737 15.7799 60.7737 16.8399C59.7737 17.8999 58.4137 18.4399 56.6737 18.4399C54.9337 18.4399 53.5737 17.8999 52.5737 16.8399C51.5737 15.7799 51.0938 14.2999 51.0938 12.4199C51.0938 10.5399 51.5937 9.07992 52.5737 8.01992C53.5537 6.95992 54.9337 6.41992 56.6737 6.41992C58.4137 6.41992 59.7937 6.95992 60.7737 8.01992ZM53.9338 9.19992C53.2738 9.97992 52.9338 11.0599 52.9338 12.4199C52.9338 13.7799 53.2738 14.8799 53.9338 15.6599C54.5938 16.4399 55.5137 16.8399 56.6737 16.8399C57.8337 16.8399 58.7738 16.4399 59.4338 15.6599C60.0938 14.8799 60.4138 13.7999 60.4138 12.4199C60.4138 11.0399 60.0938 9.97992 59.4338 9.19992C58.7738 8.41992 57.8537 8.01992 56.6737 8.01992C55.4937 8.01992 54.5938 8.39992 53.9338 9.19992Z" fill="#5E647A"/>
<path d="M0.09375 4.2V20.26L10.5337 24V7.8L21.7938 3.66L11.5737 0L0.09375 4.2Z" fill="#5E647A"/>
<path d="M11.373 8.40004V17.06L21.793 20.78V4.54004L11.373 8.40004Z" fill="#5E647A"/>
</svg>
