<svg width="121" height="24" viewBox="0 0 121 24" fill="none" xmlns="http://www.w3.org/2000/svg">
<g clip-path="url(#clip0_2042_5965)">
<path d="M7.61302 10.0845L12.2743 5.42516L16.9375 10.0883L19.6483 7.37572L12.2743 0L4.90039 7.37383L7.61302 10.0845Z" fill="#5E647A"/>
<path d="M0.271484 12.0002L2.98312 9.28865L5.69475 12.0002L2.98312 14.7118L0.271484 12.0002Z" fill="#5E647A"/>
<path d="M7.6129 13.9155L12.2742 18.5767L16.9374 13.9136L19.6501 16.6224L19.6482 16.6243L12.2742 24L4.90028 16.6281L4.89648 16.6243L7.6129 13.9155Z" fill="#5E647A"/>
<path d="M18.8477 12.0012L21.5593 9.28963L24.2709 12.0012L21.5593 14.7128L18.8477 12.0012Z" fill="#5E647A"/>
<path d="M15.0244 11.999L12.2739 9.24658L10.2399 11.2805L10.0048 11.5137L9.52332 11.9952L9.51953 11.999L9.52332 12.0047L12.2739 14.7533L15.0244 12.0009L15.0263 11.999H15.0244Z" fill="#5E647A"/>
<path d="M28.502 5.81543H34.4011C35.8645 5.81543 36.9716 6.19455 37.7222 6.95278C38.005 7.23287 38.228 7.56749 38.3776 7.93636C38.5271 8.30522 38.6002 8.70063 38.5923 9.09858V9.1346C38.5974 9.46061 38.552 9.78544 38.4577 10.0976C38.3737 10.3662 38.2518 10.6216 38.0957 10.8558C37.9501 11.0767 37.7739 11.2758 37.5725 11.4472C37.3756 11.6166 37.16 11.7629 36.9299 11.8832C37.5936 12.1144 38.1905 12.5049 38.6681 13.0205C39.0902 13.5008 39.3013 14.1642 39.3013 15.0109V15.0469C39.3133 15.5757 39.1982 16.0997 38.9657 16.5748C38.7405 17.0125 38.4103 17.3876 38.0047 17.6666C37.5461 17.9741 37.0354 18.1957 36.4977 18.3206C35.8587 18.4721 35.2037 18.5453 34.5471 18.5386H28.502V5.81543ZM33.8097 10.96C34.3201 10.9847 34.828 10.8749 35.2826 10.6416C35.4599 10.538 35.6046 10.3869 35.7004 10.2053C35.7962 10.0238 35.8393 9.81897 35.8247 9.61418V9.57817C35.8341 9.38947 35.7958 9.20145 35.7133 9.03149C35.6308 8.86152 35.5068 8.7151 35.3527 8.60573C35.038 8.38205 34.5837 8.27021 33.9898 8.27021H31.2297V10.96H33.8097ZM34.5547 16.0876C35.0631 16.1161 35.5693 15.9998 36.0143 15.7521C36.1876 15.6407 36.328 15.4849 36.4206 15.3009C36.5133 15.1168 36.555 14.9113 36.5413 14.7057V14.6697C36.5481 14.4743 36.5069 14.2802 36.4213 14.1044C36.3357 13.9286 36.2083 13.7764 36.0503 13.6613C35.7242 13.4085 35.1973 13.2821 34.4693 13.2821H31.2297V16.0876H34.5547Z" fill="#5E647A"/>
<path d="M42.8164 5.81543H45.6162V18.5424H42.8164V5.81543Z" fill="#5E647A"/>
<path d="M49.8516 5.81543H52.4334L58.4008 13.648V5.81543H61.1646V18.5424H58.7818L52.6192 10.452V18.5424H49.8516V5.81543Z" fill="#5E647A"/>
<path d="M69.6431 5.72485H72.2211L77.6748 18.5428H74.7518L73.5879 15.688H68.2062L67.0423 18.5428H64.1875L69.6431 5.72485ZM72.5889 13.2162L70.8942 9.08762L69.2071 13.2162H72.5889Z" fill="#5E647A"/>
<path d="M80.7012 5.81543H83.283L89.2466 13.648V5.81543H92.0104V18.5424H89.6276L83.465 10.452V18.5424H80.7012V5.81543Z" fill="#5E647A"/>
<path d="M102.087 18.7663C101.195 18.7739 100.31 18.6011 99.4865 18.2582C98.711 17.938 98.0073 17.4658 97.4171 16.8693C96.8268 16.2729 96.3619 15.5644 96.0498 14.7855C95.7204 13.9708 95.5536 13.0996 95.5588 12.2208V12.1848C95.5442 10.4527 96.2107 8.7841 97.4146 7.53871C98.007 6.93037 98.7163 6.44808 99.4998 6.12082C100.352 5.76779 101.267 5.59172 102.19 5.60332C102.735 5.59925 103.28 5.64813 103.816 5.74928C104.275 5.83603 104.723 5.97007 105.154 6.14925C105.546 6.31391 105.918 6.52114 106.263 6.76721C106.601 7.0072 106.918 7.27476 107.211 7.56715L105.431 9.62196C104.976 9.20235 104.466 8.84709 103.915 8.56612C103.373 8.30712 102.779 8.17734 102.178 8.187C101.679 8.18167 101.184 8.2827 100.726 8.48337C100.269 8.68404 99.8589 8.97976 99.5244 9.35089C99.1928 9.72108 98.9331 10.1499 98.7586 10.6152C98.576 11.1071 98.4841 11.6279 98.4876 12.1526V12.1886C98.4858 12.7124 98.5776 13.2324 98.7586 13.724C98.9309 14.1911 99.1879 14.6223 99.5169 14.9959C99.8487 15.3717 100.257 15.6718 100.715 15.8758C101.173 16.0799 101.669 16.1832 102.171 16.1788C102.809 16.1989 103.442 16.0615 104.015 15.7788C104.56 15.4817 105.064 15.1146 105.515 14.687L107.296 16.4878C106.982 16.8292 106.642 17.1461 106.279 17.4356C105.922 17.7175 105.535 17.9585 105.124 18.154C104.687 18.3599 104.226 18.512 103.752 18.607C103.204 18.7169 102.646 18.7702 102.087 18.7663Z" fill="#5E647A"/>
<path d="M110.602 5.81543H120.18V8.30623H113.356V10.888H119.365V13.3788H113.365V16.0516H120.275V18.5424H110.607L110.602 5.81543Z" fill="#5E647A"/>
</g>
<defs>
<clipPath id="clip0_2042_5965">
<rect width="120" height="24" fill="white" transform="translate(0.273438)"/>
</clipPath>
</defs>
</svg>
