<svg width="77" height="22" viewBox="0 0 77 22" fill="none" xmlns="http://www.w3.org/2000/svg">
<rect width="77" height="22" rx="11" fill="#535FE6"/>
<path d="M11.812 15.156C10.548 15.156 9.5 14.74 8.668 13.908C7.836 13.068 7.42 12.032 7.42 10.8C7.42 9.568 7.836 8.536 8.668 7.704C9.5 6.864 10.548 6.444 11.812 6.444C12.572 6.444 13.272 6.624 13.912 6.984C14.56 7.344 15.064 7.832 15.424 8.448L14.224 9.144C14 8.728 13.672 8.4 13.24 8.16C12.816 7.912 12.34 7.788 11.812 7.788C10.916 7.788 10.188 8.072 9.628 8.64C9.076 9.208 8.8 9.928 8.8 10.8C8.8 11.672 9.076 12.392 9.628 12.96C10.188 13.528 10.916 13.812 11.812 13.812C12.34 13.812 12.82 13.692 13.252 13.452C13.684 13.204 14.008 12.872 14.224 12.456L15.424 13.14C15.072 13.756 14.572 14.248 13.924 14.616C13.284 14.976 12.58 15.156 11.812 15.156ZM19.3068 15.156C18.4268 15.156 17.6788 14.852 17.0628 14.244C16.4468 13.636 16.1388 12.888 16.1388 12C16.1388 11.112 16.4468 10.364 17.0628 9.756C17.6788 9.148 18.4268 8.844 19.3068 8.844C20.1948 8.844 20.9428 9.148 21.5508 9.756C22.1668 10.364 22.4748 11.112 22.4748 12C22.4748 12.888 22.1668 13.636 21.5508 14.244C20.9428 14.852 20.1948 15.156 19.3068 15.156ZM17.9748 13.356C18.3348 13.716 18.7788 13.896 19.3068 13.896C19.8348 13.896 20.2788 13.716 20.6388 13.356C20.9988 12.996 21.1788 12.544 21.1788 12C21.1788 11.456 20.9988 11.004 20.6388 10.644C20.2788 10.284 19.8348 10.104 19.3068 10.104C18.7788 10.104 18.3348 10.284 17.9748 10.644C17.6148 11.004 17.4348 11.456 17.4348 12C17.4348 12.544 17.6148 12.996 17.9748 13.356ZM30.1986 8.844C30.8786 8.844 31.4266 9.064 31.8426 9.504C32.2586 9.944 32.4666 10.536 32.4666 11.28V15H31.1706V11.364C31.1706 10.948 31.0666 10.628 30.8586 10.404C30.6506 10.172 30.3666 10.056 30.0066 10.056C29.6066 10.056 29.2866 10.188 29.0466 10.452C28.8146 10.716 28.6986 11.112 28.6986 11.64V15H27.4026V11.364C27.4026 10.948 27.3026 10.628 27.1026 10.404C26.9106 10.172 26.6346 10.056 26.2746 10.056C25.8826 10.056 25.5626 10.192 25.3146 10.464C25.0666 10.728 24.9426 11.12 24.9426 11.64V15H23.6466V9H24.9426V9.72C25.3266 9.136 25.8986 8.844 26.6586 8.844C27.4266 8.844 27.9946 9.16 28.3626 9.792C28.7626 9.16 29.3746 8.844 30.1986 8.844ZM37.2497 8.844C38.0737 8.844 38.7777 9.152 39.3617 9.768C39.9457 10.376 40.2377 11.12 40.2377 12C40.2377 12.888 39.9457 13.636 39.3617 14.244C38.7777 14.852 38.0737 15.156 37.2497 15.156C36.3377 15.156 35.6377 14.82 35.1497 14.148V17.4H33.8537V9H35.1497V9.864C35.6377 9.184 36.3377 8.844 37.2497 8.844ZM35.6897 13.38C36.0497 13.74 36.5017 13.92 37.0457 13.92C37.5897 13.92 38.0417 13.74 38.4017 13.38C38.7617 13.012 38.9417 12.552 38.9417 12C38.9417 11.448 38.7617 10.992 38.4017 10.632C38.0417 10.264 37.5897 10.08 37.0457 10.08C36.5017 10.08 36.0497 10.264 35.6897 10.632C35.3297 10.992 35.1497 11.448 35.1497 12C35.1497 12.552 35.3297 13.012 35.6897 13.38ZM41.4123 15V6.24H42.7083V15H41.4123ZM45.233 12.552C45.329 13.008 45.549 13.36 45.893 13.608C46.237 13.848 46.657 13.968 47.153 13.968C47.841 13.968 48.357 13.72 48.701 13.224L49.769 13.848C49.177 14.72 48.301 15.156 47.141 15.156C46.165 15.156 45.377 14.86 44.777 14.268C44.177 13.668 43.877 12.912 43.877 12C43.877 11.104 44.173 10.356 44.765 9.756C45.357 9.148 46.117 8.844 47.045 8.844C47.925 8.844 48.645 9.152 49.205 9.768C49.773 10.384 50.057 11.132 50.057 12.012C50.057 12.148 50.041 12.328 50.009 12.552H45.233ZM45.221 11.496H48.749C48.661 11.008 48.457 10.64 48.137 10.392C47.825 10.144 47.457 10.02 47.033 10.02C46.553 10.02 46.153 10.152 45.833 10.416C45.513 10.68 45.309 11.04 45.221 11.496ZM54.3579 10.248H52.8699V13.128C52.8699 13.376 52.9259 13.556 53.0379 13.668C53.1499 13.772 53.3139 13.832 53.5299 13.848C53.7539 13.856 54.0299 13.852 54.3579 13.836V15C53.3659 15.12 52.6539 15.036 52.2219 14.748C51.7899 14.452 51.5739 13.912 51.5739 13.128V10.248H50.4699V9H51.5739V7.704L52.8699 7.32V9H54.3579V10.248ZM56.3073 12.552C56.4033 13.008 56.6233 13.36 56.9673 13.608C57.3113 13.848 57.7313 13.968 58.2273 13.968C58.9153 13.968 59.4313 13.72 59.7753 13.224L60.8433 13.848C60.2513 14.72 59.3753 15.156 58.2153 15.156C57.2393 15.156 56.4513 14.86 55.8513 14.268C55.2513 13.668 54.9513 12.912 54.9513 12C54.9513 11.104 55.2473 10.356 55.8393 9.756C56.4313 9.148 57.1913 8.844 58.1193 8.844C58.9993 8.844 59.7193 9.152 60.2793 9.768C60.8473 10.384 61.1313 11.132 61.1313 12.012C61.1313 12.148 61.1153 12.328 61.0833 12.552H56.3073ZM56.2952 11.496H59.8233C59.7353 11.008 59.5313 10.64 59.2113 10.392C58.8993 10.144 58.5313 10.02 58.1073 10.02C57.6273 10.02 57.2273 10.152 56.9073 10.416C56.5873 10.68 56.3833 11.04 56.2952 11.496ZM66.9885 6.6H68.2845V15H66.9885V14.136C66.5005 14.816 65.8005 15.156 64.8885 15.156C64.0645 15.156 63.3605 14.852 62.7765 14.244C62.1925 13.628 61.9005 12.88 61.9005 12C61.9005 11.112 62.1925 10.364 62.7765 9.756C63.3605 9.148 64.0645 8.844 64.8885 8.844C65.8005 8.844 66.5005 9.18 66.9885 9.852V6.6ZM63.7365 13.38C64.0965 13.74 64.5485 13.92 65.0925 13.92C65.6365 13.92 66.0885 13.74 66.4485 13.38C66.8085 13.012 66.9885 12.552 66.9885 12C66.9885 11.448 66.8085 10.992 66.4485 10.632C66.0885 10.264 65.6365 10.08 65.0925 10.08C64.5485 10.08 64.0965 10.264 63.7365 10.632C63.3765 10.992 63.1965 11.448 63.1965 12C63.1965 12.552 63.3765 13.012 63.7365 13.38Z" fill="white"/>
</svg>
