<svg width="18" height="18" viewBox="0 0 18 18" fill="none" xmlns="http://www.w3.org/2000/svg">
<path d="M10.5 8.25C10.5 9.07843 9.82843 9.75 9 9.75C8.17157 9.75 7.5 9.07843 7.5 8.25C7.5 7.42157 8.17157 6.75 9 6.75C9.82843 6.75 10.5 7.42157 10.5 8.25Z" fill="url(#paint0_linear_3802_13511)"/>
<path fill-rule="evenodd" clip-rule="evenodd" d="M4.5 16.173C0.899024 15.4511 0 13.361 0 8.25C0 1.45612 1.5885 0 9 0C16.4115 0 18 1.45612 18 8.25C18 13.361 17.101 15.4511 13.5 16.173V17.25C13.5 17.6642 13.1642 18 12.75 18C12.3358 18 12 17.6642 12 17.25V16.3846C11.1255 16.4661 10.1305 16.5 9 16.5C7.86954 16.5 6.87455 16.4661 6 16.3846V17.25C6 17.6642 5.66421 18 5.25 18C4.83579 18 4.5 17.6642 4.5 17.25V16.173ZM9.74428 5.34305C9.74806 5.31256 9.75 5.28151 9.75 5.25V4.5C9.75 4.08579 9.41421 3.75 9 3.75C8.58579 3.75 8.25 4.08579 8.25 4.5V5.25C8.25 5.28151 8.25194 5.31256 8.25572 5.34305C7.19689 5.61334 6.36334 6.44689 6.09305 7.50572C6.06256 7.50194 6.03151 7.5 6 7.5H5.25C4.83579 7.5 4.5 7.83579 4.5 8.25C4.5 8.66421 4.83579 9 5.25 9H6C6.03151 9 6.06256 8.99806 6.09305 8.99428C6.36334 10.0531 7.19689 10.8867 8.25572 11.1569C8.25194 11.1874 8.25 11.2185 8.25 11.25V12C8.25 12.4142 8.58579 12.75 9 12.75C9.41421 12.75 9.75 12.4142 9.75 12V11.25C9.75 11.2185 9.74806 11.1874 9.74428 11.1569C10.8031 10.8867 11.6367 10.0531 11.9069 8.99428C11.9374 8.99806 11.9685 9 12 9H12.75C13.1642 9 13.5 8.66421 13.5 8.25C13.5 7.83579 13.1642 7.5 12.75 7.5H12C11.9685 7.5 11.9374 7.50194 11.9069 7.50572C11.6367 6.44689 10.8031 5.61334 9.74428 5.34305Z" fill="url(#paint1_linear_3802_13511)"/>
<defs>
<linearGradient id="paint0_linear_3802_13511" x1="12.6982" y1="12.4864" x2="4.00443" y2="0.409356" gradientUnits="userSpaceOnUse">
<stop stop-color="#535FE6" stop-opacity="0.84"/>
<stop offset="1" stop-color="#20C1CF" stop-opacity="0.57"/>
</linearGradient>
<linearGradient id="paint1_linear_3802_13511" x1="12.6982" y1="12.4864" x2="4.00443" y2="0.409356" gradientUnits="userSpaceOnUse">
<stop stop-color="#535FE6" stop-opacity="0.84"/>
<stop offset="1" stop-color="#20C1CF" stop-opacity="0.57"/>
</linearGradient>
</defs>
</svg>
