<svg width="153" height="153" viewBox="0 0 153 153" fill="none" xmlns="http://www.w3.org/2000/svg">
<path d="M75.7215 148.372C75.7102 150.472 73.9971 152.194 71.9001 152.1C56.174 151.4 41.0706 145.827 28.7056 136.106C15.3472 125.604 5.96278 110.871 2.06443 94.2825C-1.83392 77.6936 -0.0191424 60.2145 7.21634 44.6616C14.4518 29.1087 26.6866 16.3879 41.9493 8.54889C57.2119 0.709875 74.6135 -1.79078 91.3501 1.44987C108.087 4.69052 123.183 13.4837 134.208 26.4126C145.232 39.3415 151.542 55.6531 152.121 72.719C152.656 88.5159 148.252 104.108 139.572 117.344C138.414 119.108 136.026 119.493 134.333 118.268C132.641 117.043 132.287 114.672 133.434 112.901C141.109 101.058 144.997 87.1494 144.52 73.0593C143.999 57.7 138.32 43.0196 128.398 31.3836C118.476 19.7476 104.889 11.8337 89.8261 8.91711C74.7633 6.00052 59.1018 8.25111 45.3654 15.3062C31.6291 22.3613 20.6177 33.8101 14.1058 47.8077C7.59387 61.8053 5.96057 77.5365 9.46908 92.4664C12.9776 107.396 21.4236 120.656 33.4461 130.108C44.4751 138.778 57.9248 143.782 71.9416 144.485C74.0379 144.59 75.7328 146.272 75.7215 148.372Z" fill="#20C1CF"/>
</svg>
