<svg width="166" height="185" viewBox="0 0 166 185" fill="none" xmlns="http://www.w3.org/2000/svg">
<path d="M91.9206 179.703C91.907 182.24 89.8373 184.321 87.3035 184.208C73.1768 183.578 59.3994 179.692 47.0565 172.827C33.3793 165.22 21.9211 154.209 13.7779 140.847C5.63468 127.486 1.07889 112.221 0.546284 96.5133C0.0136767 80.8054 3.52207 65.1797 10.7359 51.1308C17.9497 37.0819 28.6276 25.0798 41.7482 16.2725C54.8689 7.46522 69.9934 2.14738 85.675 0.827634C101.357 -0.492109 117.071 2.2304 131.314 8.73474C144.168 14.6045 155.437 23.377 164.255 34.3445C165.837 36.3116 165.357 39.1958 163.296 40.6986C161.235 42.2015 158.374 41.7529 156.781 39.7947C148.888 30.0898 138.852 22.3206 127.422 17.1014C114.603 11.2475 100.46 8.79722 86.3466 9.98498C72.2331 11.1728 58.6211 15.9588 46.8125 23.8854C35.004 31.8119 25.3938 42.6138 18.9014 55.2578C12.409 67.9018 9.25143 81.965 9.73078 96.1021C10.2101 110.239 14.3103 123.977 21.6392 136.003C28.9681 148.028 39.2805 157.938 51.59 164.784C62.5649 170.889 74.8001 174.376 87.3535 175.006C89.8864 175.133 91.9343 177.165 91.9206 179.703Z" fill="#535FE6"/>
</svg>
