<svg width="30" height="13" viewBox="0 0 30 13" fill="none" xmlns="http://www.w3.org/2000/svg">
<path d="M7.59955 11.3639C6.80643 12.0722 5.78588 12.4298 4.5379 12.4367C3.28992 12.4435 2.27317 12.0971 1.48764 11.3975C0.70217 10.6872 0.312656 9.73467 0.319095 8.54002L0.359457 1.05213L2.19943 1.04203L2.15967 8.41792C2.15599 9.10058 2.35039 9.64348 2.74287 10.0466C3.14601 10.4497 3.74757 10.6491 4.54756 10.6447C5.34755 10.6403 5.94597 10.4344 6.34281 10.0269C6.75032 9.61932 6.95592 9.07421 6.9596 8.39155L6.99936 1.01566L8.83933 1.00555L8.79897 8.49345C8.79253 9.68809 8.39272 10.6449 7.59955 11.3639ZM14.6221 12.3813C13.5448 12.3872 12.6288 12.1469 11.8741 11.6604C11.1301 11.1739 10.6111 10.5047 10.317 9.65306L11.906 8.71637C12.3472 9.97256 13.2718 10.5968 14.6798 10.589C15.3731 10.5852 15.8911 10.4491 16.2339 10.1805C16.5874 9.90127 16.7653 9.54297 16.7677 9.10564C16.7702 8.64699 16.5854 8.30135 16.2133 8.06874C15.8413 7.82546 15.1814 7.56243 14.2336 7.27965C13.7012 7.12258 13.27 6.97562 12.9401 6.83877C12.6102 6.70192 12.2592 6.51186 11.8872 6.26858C11.5259 6.01458 11.2556 5.70141 11.0763 5.32908C10.897 4.95674 10.8087 4.51991 10.8114 4.01859C10.8167 3.0266 11.1729 2.24068 11.88 1.66082C12.5872 1.0703 13.4368 0.772309 14.4287 0.766861C15.3247 0.761939 16.1075 0.976296 16.7772 1.40993C17.4468 1.84357 17.9609 2.44338 18.3194 3.20938L16.7626 4.11389C16.2989 3.07115 15.5177 2.5528 14.4191 2.55884C13.8858 2.56176 13.4584 2.69211 13.137 2.94986C12.8157 3.19695 12.6539 3.53382 12.6516 3.96048C12.6494 4.37648 12.8076 4.70626 13.1263 4.94983C13.4556 5.18268 14.0463 5.43009 14.8982 5.69206C15.3241 5.82839 15.6328 5.93335 15.8244 6.00696C16.0267 6.06985 16.3035 6.17499 16.6547 6.32239C17.0165 6.46973 17.2877 6.61756 17.4683 6.7659C17.6488 6.91424 17.8398 7.09984 18.0412 7.32273C18.2534 7.54555 18.4013 7.80073 18.4851 8.08826C18.5689 8.37578 18.6098 8.70088 18.6078 9.06354C18.6024 10.0769 18.23 10.8842 17.4908 11.4856C16.7623 12.0762 15.8061 12.3748 14.6221 12.3813ZM24.5586 0.91921C26.0946 0.910773 27.3663 1.44243 28.3738 2.51418C29.392 3.58587 29.8968 4.91104 29.8883 6.48969C29.8799 8.05766 29.3607 9.38846 28.3309 10.4821C27.3117 11.565 26.0342 12.1106 24.4982 12.119L20.0983 12.1432L20.1587 0.943378L24.5586 0.91921ZM24.5077 10.3591C25.5637 10.3533 26.4243 9.98589 27.0895 9.25694C27.7654 8.52793 28.1064 7.60876 28.1124 6.49944C28.1184 5.37946 27.7873 4.46398 27.1192 3.75302C26.4618 3.03133 25.6051 2.67338 24.5491 2.67918L21.9891 2.69325L21.9477 10.3731L24.5077 10.3591Z" fill="white"/>
</svg>
