<svg width="137" height="53" viewBox="0 0 137 53" fill="none" xmlns="http://www.w3.org/2000/svg">
<path d="M60.0982 20.9999L58.9712 17.7569H52.1172L50.9902 20.9999H48.1152L53.9572 4.8999H57.1312L62.9502 20.9999H60.0982ZM52.9912 15.2729H58.0972L55.5442 8.0049L52.9912 15.2729Z" fill="white"/>
<path d="M71.0065 4.8999C73.2145 4.8999 75.0469 5.67424 76.5035 7.2229C77.9755 8.77157 78.7115 10.6806 78.7115 12.9499C78.7115 15.2039 77.9755 17.1129 76.5035 18.6769C75.0469 20.2256 73.2145 20.9999 71.0065 20.9999H64.6815V4.8999H71.0065ZM71.0065 18.4699C72.5245 18.4699 73.7589 17.9486 74.7095 16.9059C75.6755 15.8632 76.1585 14.5446 76.1585 12.9499C76.1585 11.3399 75.6755 10.0212 74.7095 8.9939C73.7589 7.95124 72.5245 7.4299 71.0065 7.4299H67.3265V18.4699H71.0065Z" fill="white"/>
<path d="M83.7679 18.4699H90.8979V20.9999H81.1229V4.8999H90.7829V7.4299H83.7679V11.6159H90.2079V14.1229H83.7679V18.4699Z" fill="white"/>
<path d="M105.164 20.9999H102.151L98.6092 15.1809L95.0672 20.9999H92.0542L97.1142 12.7199L92.3532 4.8999H95.3432L98.6092 10.2589L101.875 4.8999H104.888L100.127 12.7199L105.164 20.9999Z" fill="white"/>
<path d="M57.2227 47.2991C54.8 47.2991 52.7914 46.5017 51.1967 44.9071C49.602 43.2971 48.8047 41.3114 48.8047 38.9501C48.8047 36.5887 49.602 34.6107 51.1967 33.0161C52.7914 31.4061 54.8 30.6011 57.2227 30.6011C58.6794 30.6011 60.021 30.9461 61.2477 31.6361C62.4897 32.3261 63.4557 33.2614 64.1457 34.4421L61.8457 35.7761C61.4164 34.9787 60.7877 34.3501 59.9597 33.8901C59.147 33.4147 58.2347 33.1771 57.2227 33.1771C55.5054 33.1771 54.11 33.7214 53.0367 34.8101C51.9787 35.8987 51.4497 37.2787 51.4497 38.9501C51.4497 40.6214 51.9787 42.0014 53.0367 43.0901C54.11 44.1787 55.5054 44.7231 57.2227 44.7231C58.2347 44.7231 59.1547 44.4931 59.9827 44.0331C60.8107 43.5577 61.4317 42.9214 61.8457 42.1241L64.1457 43.4351C63.471 44.6157 62.5127 45.5587 61.2707 46.2641C60.044 46.9541 58.6947 47.2991 57.2227 47.2991Z" fill="white"/>
<path d="M76.7188 47.0001L75.5918 43.7571H68.7378L67.6108 47.0001H64.7358L70.5778 30.9001H73.7518L79.5708 47.0001H76.7188ZM69.6118 41.2731H74.7178L72.1648 34.0051L69.6118 41.2731Z" fill="white"/>
<path d="M87.2361 30.9001C88.7541 30.9001 90.0191 31.4061 91.0311 32.4181C92.0584 33.4301 92.5721 34.6874 92.5721 36.1901C92.5721 37.6774 92.0584 38.9347 91.0311 39.9621C90.0191 40.9741 88.7541 41.4801 87.2361 41.4801H83.9471V47.0001H81.3021V30.9001H87.2361ZM87.2361 38.9961C88.0181 38.9961 88.6621 38.7354 89.1681 38.2141C89.6741 37.6774 89.9271 37.0027 89.9271 36.1901C89.9271 35.3774 89.6741 34.7104 89.1681 34.1891C88.6621 33.6524 88.0181 33.3841 87.2361 33.3841H83.9471V38.9961H87.2361Z" fill="white"/>
<path d="M94.8685 30.9001H97.5135V47.0001H94.8685V30.9001Z" fill="white"/>
<path d="M111.196 30.9001V33.4301H106.665V47.0001H104.02V33.4301H99.4658V30.9001H111.196Z" fill="white"/>
<path d="M122.494 47.0001L121.367 43.7571H114.513L113.386 47.0001H110.511L116.353 30.9001H119.527L125.346 47.0001H122.494ZM115.387 41.2731H120.493L117.94 34.0051L115.387 41.2731Z" fill="white"/>
<path d="M129.722 44.4701H136.277V47.0001H127.077V30.9001H129.722V44.4701Z" fill="white"/>
<path fill-rule="evenodd" clip-rule="evenodd" d="M1.01312 32.9999C0.453591 32.9999 -0.00368546 32.5448 0.0349554 31.9866C0.569803 24.2604 7.17565 18.1545 15.2461 18.1545H32V26.3113H15.2461C11.8047 26.3113 8.95441 28.7755 8.45466 31.9906C8.36871 32.5435 7.92337 32.9999 7.36384 32.9999H1.01312Z" fill="#535FE6"/>
<path fill-rule="evenodd" clip-rule="evenodd" d="M0 31.6903C0 20.3886 9.37624 11.2268 20.9424 11.2268H32V19.4122H20.9424C14.0027 19.4122 8.37696 24.9093 8.37696 31.6903V31.9869C8.37696 32.5464 7.92337 33 7.36384 33H1.01312C0.453591 33 0 32.5464 0 31.9869V31.6903Z" fill="#4452EE"/>
<path fill-rule="evenodd" clip-rule="evenodd" d="M0 30.3046C0 18.675 9.37624 9.24731 20.9424 9.24731H32V17.6702H20.9424C14.0027 17.6702 8.37696 23.3268 8.37696 30.3046V31.9868C8.37696 32.5463 7.92337 32.9999 7.36384 32.9999H1.01312C0.453591 32.9999 0 32.5463 0 31.9868V30.3046Z" fill="#1B1A1A"/>
<path fill-rule="evenodd" clip-rule="evenodd" d="M0 23.2682C0 11.8809 9.37624 2.64966 20.9424 2.64966H32V10.8971H20.9424C14.0027 10.8971 8.37696 16.4358 8.37696 23.2682V31.987C8.37696 32.5466 7.92337 33.0002 7.36384 33.0002H1.01312C0.453591 33.0002 0 32.5466 0 31.987V23.2682Z" fill="#0F828C"/>
<path fill-rule="evenodd" clip-rule="evenodd" d="M0 21.9424C0 10.3762 9.37624 1 20.9424 1H30.9869C31.5464 1 32 1.45359 32 2.01312V9.37696H20.9424C14.0027 9.37696 8.37696 15.0027 8.37696 21.9424V31.9869C8.37696 32.5464 7.92337 33 7.36384 33H1.01312C0.453591 33 0 32.5464 0 31.9869V21.9424Z" fill="#20C1CF"/>
<path fill-rule="evenodd" clip-rule="evenodd" d="M24.7651 33C24.2055 33 23.752 32.5464 23.752 31.9869V1H30.9863C31.5458 1 31.9994 1.45359 31.9994 2.01312V31.9869C31.9994 32.5464 31.5458 33 30.9863 33H24.7651Z" fill="#535FE6"/>
</svg>
