<svg width="24" height="24" viewBox="0 0 24 24" fill="none" xmlns="http://www.w3.org/2000/svg">
<path fill-rule="evenodd" clip-rule="evenodd" d="M1.99609 5.99756C1.99609 5.44527 2.44381 4.99756 2.99609 4.99756H21.0036C21.5559 4.99756 22.0036 5.44527 22.0036 5.99756C22.0036 6.54984 21.5559 6.99756 21.0036 6.99756H2.99609C2.44381 6.99756 1.99609 6.54984 1.99609 5.99756Z" fill="white"/>
<path fill-rule="evenodd" clip-rule="evenodd" d="M1.99609 12C1.99609 11.4477 2.44381 11 2.99609 11H17.0019C17.5542 11 18.0019 11.4477 18.0019 12C18.0019 12.5523 17.5542 13 17.0019 13H2.99609C2.44381 13 1.99609 12.5523 1.99609 12Z" fill="white"/>
<path fill-rule="evenodd" clip-rule="evenodd" d="M1.99609 18.0024C1.99609 17.4502 2.44381 17.0024 2.99609 17.0024H13.0003C13.5525 17.0024 14.0003 17.4502 14.0003 18.0024C14.0003 18.5547 13.5525 19.0024 13.0003 19.0024H2.99609C2.44381 19.0024 1.99609 18.5547 1.99609 18.0024Z" fill="white"/>
</svg>
