<svg width="67" height="22" viewBox="0 0 67 22" fill="none" xmlns="http://www.w3.org/2000/svg">
<rect width="67" height="22" rx="11" fill="#20C1CF"/>
<path d="M22.312 15L21.724 13.308H18.148L17.56 15H16.06L19.108 6.6H20.764L23.8 15H22.312ZM18.604 12.012H21.268L19.936 8.22L18.604 12.012ZM27.2989 15.156C26.3949 15.156 25.6389 14.852 25.0309 14.244C24.4309 13.636 24.1309 12.888 24.1309 12C24.1309 11.104 24.4309 10.356 25.0309 9.756C25.6389 9.148 26.3949 8.844 27.2989 8.844C27.8829 8.844 28.4149 8.984 28.8949 9.264C29.3749 9.544 29.7349 9.92 29.9749 10.392L28.8589 11.04C28.7229 10.752 28.5149 10.528 28.2349 10.368C27.9629 10.2 27.6469 10.116 27.2869 10.116C26.7589 10.116 26.3149 10.296 25.9549 10.656C25.6029 11.016 25.4269 11.464 25.4269 12C25.4269 12.536 25.6029 12.984 25.9549 13.344C26.3149 13.704 26.7589 13.884 27.2869 13.884C27.6389 13.884 27.9549 13.8 28.2349 13.632C28.5229 13.464 28.7389 13.24 28.8829 12.96L29.9989 13.596C29.7429 14.076 29.3749 14.456 28.8949 14.736C28.4149 15.016 27.8829 15.156 27.2989 15.156ZM34.2837 10.248H32.7957V13.128C32.7957 13.376 32.8517 13.556 32.9637 13.668C33.0757 13.772 33.2397 13.832 33.4557 13.848C33.6797 13.856 33.9557 13.852 34.2837 13.836V15C33.2917 15.12 32.5797 15.036 32.1477 14.748C31.7157 14.452 31.4997 13.912 31.4997 13.128V10.248H30.3957V9H31.4997V7.704L32.7957 7.32V9H34.2837V10.248ZM36.6831 7.86C36.5231 8.02 36.3311 8.1 36.1071 8.1C35.8831 8.1 35.6871 8.02 35.5191 7.86C35.3591 7.692 35.2791 7.496 35.2791 7.272C35.2791 7.048 35.3591 6.856 35.5191 6.696C35.6791 6.528 35.8751 6.444 36.1071 6.444C36.3391 6.444 36.5351 6.528 36.6951 6.696C36.8551 6.856 36.9351 7.048 36.9351 7.272C36.9351 7.496 36.8511 7.692 36.6831 7.86ZM35.4591 15V9H36.7551V15H35.4591ZM42.3279 9H43.7439L41.4039 15H39.9039L37.5639 9H38.9799L40.6599 13.56L42.3279 9ZM45.3502 12.552C45.4462 13.008 45.6662 13.36 46.0102 13.608C46.3542 13.848 46.7742 13.968 47.2702 13.968C47.9582 13.968 48.4742 13.72 48.8182 13.224L49.8862 13.848C49.2942 14.72 48.4182 15.156 47.2582 15.156C46.2822 15.156 45.4942 14.86 44.8942 14.268C44.2942 13.668 43.9942 12.912 43.9942 12C43.9942 11.104 44.2902 10.356 44.8822 9.756C45.4742 9.148 46.2342 8.844 47.1622 8.844C48.0422 8.844 48.7622 9.152 49.3222 9.768C49.8902 10.384 50.1742 11.132 50.1742 12.012C50.1742 12.148 50.1582 12.328 50.1262 12.552H45.3502ZM45.3382 11.496H48.8662C48.7782 11.008 48.5742 10.64 48.2542 10.392C47.9422 10.144 47.5742 10.02 47.1502 10.02C46.6702 10.02 46.2702 10.152 45.9502 10.416C45.6302 10.68 45.4262 11.04 45.3382 11.496Z" fill="white"/>
</svg>
