<svg width="18" height="18" viewBox="0 0 18 18" fill="none" xmlns="http://www.w3.org/2000/svg">
<path fill-rule="evenodd" clip-rule="evenodd" d="M9 18C1.5885 18 0 16.4115 0 9C0 1.5885 1.5885 0 9 0C16.4115 0 18 1.5885 18 9C18 16.4115 16.4115 18 9 18ZM12.5303 9.96967L9.53033 6.96967C9.23744 6.67678 8.76256 6.67678 8.46967 6.96967L5.46967 9.96967C5.17678 10.2626 5.17678 10.7374 5.46967 11.0303C5.76256 11.3232 6.23744 11.3232 6.53033 11.0303L9 8.56066L11.4697 11.0303C11.7626 11.3232 12.2374 11.3232 12.5303 11.0303C12.8232 10.7374 12.8232 10.2626 12.5303 9.96967Z" fill="white"/>
</svg>
